%TF.GenerationSoftware,KiCad,Pcbnew,(6.0.10)*%
%TF.CreationDate,2023-02-24T13:01:01+01:00*%
%TF.ProjectId,CherryZXKeyboard,43686572-7279-45a5-984b-6579626f6172,rev?*%
%TF.SameCoordinates,Original*%
%TF.FileFunction,Drillmap*%
%TF.FilePolarity,Positive*%
%FSLAX45Y45*%
G04 Gerber Fmt 4.5, Leading zero omitted, Abs format (unit mm)*
G04 Created by KiCad (PCBNEW (6.0.10)) date 2023-02-24 13:01:01*
%MOMM*%
%LPD*%
G01*
G04 APERTURE LIST*
%ADD10C,0.050000*%
%ADD11C,0.200000*%
%ADD12C,0.040000*%
%ADD13C,0.080000*%
%ADD14C,0.100000*%
%ADD15C,0.150000*%
%ADD16C,0.360000*%
G04 APERTURE END LIST*
D10*
X4968600Y-6913400D02*
X33968600Y-6913400D01*
X33968600Y-6913400D02*
X33968600Y-18913400D01*
X33968600Y-18913400D02*
X4968600Y-18913400D01*
X4968600Y-18913400D02*
X4968600Y-6913400D01*
D11*
D12*
X7899370Y-7168650D02*
X7939370Y-7208650D01*
X7939370Y-7168650D02*
X7899370Y-7208650D01*
X8140790Y-8960350D02*
X8180790Y-9000350D01*
X8180790Y-8960350D02*
X8140790Y-9000350D01*
X9324790Y-7327710D02*
X9364790Y-7367710D01*
X9364790Y-7327710D02*
X9324790Y-7367710D01*
X9645630Y-8517880D02*
X9685630Y-8557880D01*
X9685630Y-8517880D02*
X9645630Y-8557880D01*
X9845690Y-7849660D02*
X9885690Y-7889660D01*
X9885690Y-7849660D02*
X9845690Y-7889660D01*
X9879700Y-9522540D02*
X9919700Y-9562540D01*
X9919700Y-9522540D02*
X9879700Y-9562540D01*
X9987000Y-8809200D02*
X10027000Y-8849200D01*
X10027000Y-8809200D02*
X9987000Y-8849200D01*
X10063200Y-9317200D02*
X10103200Y-9357200D01*
X10103200Y-9317200D02*
X10063200Y-9357200D01*
X10582380Y-8285070D02*
X10622380Y-8325070D01*
X10622380Y-8285070D02*
X10582380Y-8325070D01*
X10779490Y-9522540D02*
X10819490Y-9562540D01*
X10819490Y-9522540D02*
X10779490Y-9562540D01*
X10834070Y-8602750D02*
X10874070Y-8642750D01*
X10874070Y-8602750D02*
X10834070Y-8642750D01*
X12263810Y-8822210D02*
X12303810Y-8862210D01*
X12303810Y-8822210D02*
X12263810Y-8862210D01*
X13002220Y-8010400D02*
X13042220Y-8050400D01*
X13042220Y-8010400D02*
X13002220Y-8050400D01*
X13048070Y-15393400D02*
X13088070Y-15433400D01*
X13088070Y-15393400D02*
X13048070Y-15433400D01*
X13861730Y-9158750D02*
X13901730Y-9198750D01*
X13901730Y-9158750D02*
X13861730Y-9198750D01*
X14849080Y-10287530D02*
X14889080Y-10327530D01*
X14889080Y-10287530D02*
X14849080Y-10327530D01*
X18244090Y-8924420D02*
X18284090Y-8964420D01*
X18284090Y-8924420D02*
X18244090Y-8964420D01*
X18813500Y-7297900D02*
X18853500Y-7337900D01*
X18853500Y-7297900D02*
X18813500Y-7337900D01*
X20641430Y-10619550D02*
X20681430Y-10659550D01*
X20681430Y-10619550D02*
X20641430Y-10659550D01*
X21706960Y-7923490D02*
X21746960Y-7963490D01*
X21746960Y-7923490D02*
X21706960Y-7963490D01*
X22749700Y-9393400D02*
X22789700Y-9433400D01*
X22789700Y-9393400D02*
X22749700Y-9433400D01*
X23270620Y-7915910D02*
X23310620Y-7955910D01*
X23310620Y-7915910D02*
X23270620Y-7955910D01*
X23273700Y-8870160D02*
X23313700Y-8910160D01*
X23313700Y-8870160D02*
X23273700Y-8910160D01*
X23424210Y-8134830D02*
X23464210Y-8174830D01*
X23464210Y-8134830D02*
X23424210Y-8174830D01*
X23525200Y-10161410D02*
X23565200Y-10201410D01*
X23565200Y-10161410D02*
X23525200Y-10201410D01*
X23535170Y-13174960D02*
X23575170Y-13214960D01*
X23575170Y-13174960D02*
X23535170Y-13214960D01*
X23660030Y-13099550D02*
X23700030Y-13139550D01*
X23700030Y-13099550D02*
X23660030Y-13139550D01*
X23956730Y-8275880D02*
X23996730Y-8315880D01*
X23996730Y-8275880D02*
X23956730Y-8315880D01*
X24160200Y-10460200D02*
X24200200Y-10500200D01*
X24200200Y-10460200D02*
X24160200Y-10500200D01*
X25074380Y-7413360D02*
X25114380Y-7453360D01*
X25114380Y-7413360D02*
X25074380Y-7453360D01*
X25291610Y-8631570D02*
X25331610Y-8671570D01*
X25331610Y-8631570D02*
X25291610Y-8671570D01*
X25582600Y-15108400D02*
X25622600Y-15148400D01*
X25622600Y-15108400D02*
X25582600Y-15148400D01*
X25811200Y-7590000D02*
X25851200Y-7630000D01*
X25851200Y-7590000D02*
X25811200Y-7630000D01*
X25862000Y-7132800D02*
X25902000Y-7172800D01*
X25902000Y-7132800D02*
X25862000Y-7172800D01*
X25880830Y-8876410D02*
X25920830Y-8916410D01*
X25920830Y-8876410D02*
X25880830Y-8916410D01*
X25989000Y-7031200D02*
X26029000Y-7071200D01*
X26029000Y-7031200D02*
X25989000Y-7071200D01*
X25989000Y-7590000D02*
X26029000Y-7630000D01*
X26029000Y-7590000D02*
X25989000Y-7630000D01*
X26192410Y-8164820D02*
X26232410Y-8204820D01*
X26232410Y-8164820D02*
X26192410Y-8204820D01*
X27757450Y-14871720D02*
X27797450Y-14911720D01*
X27797450Y-14871720D02*
X27757450Y-14911720D01*
X27797150Y-15223340D02*
X27837150Y-15263340D01*
X27837150Y-15223340D02*
X27797150Y-15263340D01*
X28357640Y-8976060D02*
X28397640Y-9016060D01*
X28397640Y-8976060D02*
X28357640Y-9016060D01*
X28544870Y-11006620D02*
X28584870Y-11046620D01*
X28584870Y-11006620D02*
X28544870Y-11046620D01*
X28783000Y-18562800D02*
X28823000Y-18602800D01*
X28823000Y-18562800D02*
X28783000Y-18602800D01*
X30609980Y-8771850D02*
X30649980Y-8811850D01*
X30649980Y-8771850D02*
X30609980Y-8811850D01*
X30769010Y-7432650D02*
X30809010Y-7472650D01*
X30809010Y-7432650D02*
X30769010Y-7472650D01*
X31396030Y-7795150D02*
X31436030Y-7835150D01*
X31436030Y-7795150D02*
X31396030Y-7835150D01*
D13*
X6313200Y-7533800D02*
G75*
G03*
X6313200Y-7533800I-40000J0D01*
G01*
X6567200Y-7533800D02*
G75*
G03*
X6567200Y-7533800I-40000J0D01*
G01*
X6582600Y-7835200D02*
G75*
G03*
X6582600Y-7835200I-40000J0D01*
G01*
X6582600Y-8597200D02*
G75*
G03*
X6582600Y-8597200I-40000J0D01*
G01*
X6821200Y-7533800D02*
G75*
G03*
X6821200Y-7533800I-40000J0D01*
G01*
X6836600Y-7835200D02*
G75*
G03*
X6836600Y-7835200I-40000J0D01*
G01*
X6836600Y-8597200D02*
G75*
G03*
X6836600Y-8597200I-40000J0D01*
G01*
X7075200Y-7533800D02*
G75*
G03*
X7075200Y-7533800I-40000J0D01*
G01*
X7329200Y-7533800D02*
G75*
G03*
X7329200Y-7533800I-40000J0D01*
G01*
X7370000Y-7860600D02*
G75*
G03*
X7370000Y-7860600I-40000J0D01*
G01*
X7370000Y-8622600D02*
G75*
G03*
X7370000Y-8622600I-40000J0D01*
G01*
X7583200Y-7533800D02*
G75*
G03*
X7583200Y-7533800I-40000J0D01*
G01*
X7624000Y-7860600D02*
G75*
G03*
X7624000Y-7860600I-40000J0D01*
G01*
X7624000Y-8622600D02*
G75*
G03*
X7624000Y-8622600I-40000J0D01*
G01*
X8047100Y-7530900D02*
G75*
G03*
X8047100Y-7530900I-40000J0D01*
G01*
X8047100Y-8292900D02*
G75*
G03*
X8047100Y-8292900I-40000J0D01*
G01*
X8301100Y-7530900D02*
G75*
G03*
X8301100Y-7530900I-40000J0D01*
G01*
X8301100Y-8292900D02*
G75*
G03*
X8301100Y-8292900I-40000J0D01*
G01*
X8555100Y-7530900D02*
G75*
G03*
X8555100Y-7530900I-40000J0D01*
G01*
X8555100Y-8292900D02*
G75*
G03*
X8555100Y-8292900I-40000J0D01*
G01*
X8573800Y-8676800D02*
G75*
G03*
X8573800Y-8676800I-40000J0D01*
G01*
X8809100Y-7530900D02*
G75*
G03*
X8809100Y-7530900I-40000J0D01*
G01*
X8809100Y-8292900D02*
G75*
G03*
X8809100Y-8292900I-40000J0D01*
G01*
X9063100Y-7530900D02*
G75*
G03*
X9063100Y-7530900I-40000J0D01*
G01*
X9063100Y-8292900D02*
G75*
G03*
X9063100Y-8292900I-40000J0D01*
G01*
X9317100Y-7530900D02*
G75*
G03*
X9317100Y-7530900I-40000J0D01*
G01*
X9317100Y-8292900D02*
G75*
G03*
X9317100Y-8292900I-40000J0D01*
G01*
X9335800Y-8676800D02*
G75*
G03*
X9335800Y-8676800I-40000J0D01*
G01*
X9571100Y-7530900D02*
G75*
G03*
X9571100Y-7530900I-40000J0D01*
G01*
X9571100Y-8292900D02*
G75*
G03*
X9571100Y-8292900I-40000J0D01*
G01*
X9945400Y-7305200D02*
G75*
G03*
X9945400Y-7305200I-40000J0D01*
G01*
X9998600Y-7613400D02*
G75*
G03*
X9998600Y-7613400I-40000J0D01*
G01*
X10250200Y-7889400D02*
G75*
G03*
X10250200Y-7889400I-40000J0D01*
G01*
X10250200Y-8651400D02*
G75*
G03*
X10250200Y-8651400I-40000J0D01*
G01*
X10252600Y-7613400D02*
G75*
G03*
X10252600Y-7613400I-40000J0D01*
G01*
X10506600Y-7613400D02*
G75*
G03*
X10506600Y-7613400I-40000J0D01*
G01*
X10508600Y-7889400D02*
G75*
G03*
X10508600Y-7889400I-40000J0D01*
G01*
X10508600Y-8651400D02*
G75*
G03*
X10508600Y-8651400I-40000J0D01*
G01*
X10707400Y-7305200D02*
G75*
G03*
X10707400Y-7305200I-40000J0D01*
G01*
X10760600Y-7613400D02*
G75*
G03*
X10760600Y-7613400I-40000J0D01*
G01*
X11014600Y-7613400D02*
G75*
G03*
X11014600Y-7613400I-40000J0D01*
G01*
X11266200Y-7889400D02*
G75*
G03*
X11266200Y-7889400I-40000J0D01*
G01*
X11266200Y-8651400D02*
G75*
G03*
X11266200Y-8651400I-40000J0D01*
G01*
X11268600Y-7613400D02*
G75*
G03*
X11268600Y-7613400I-40000J0D01*
G01*
X11317000Y-7305200D02*
G75*
G03*
X11317000Y-7305200I-40000J0D01*
G01*
X11825000Y-7635400D02*
G75*
G03*
X11825000Y-7635400I-40000J0D01*
G01*
X11825000Y-8397400D02*
G75*
G03*
X11825000Y-8397400I-40000J0D01*
G01*
X12079000Y-7305200D02*
G75*
G03*
X12079000Y-7305200I-40000J0D01*
G01*
X12079000Y-7635400D02*
G75*
G03*
X12079000Y-7635400I-40000J0D01*
G01*
X12079000Y-8397400D02*
G75*
G03*
X12079000Y-8397400I-40000J0D01*
G01*
X12333000Y-7635400D02*
G75*
G03*
X12333000Y-7635400I-40000J0D01*
G01*
X12333000Y-8397400D02*
G75*
G03*
X12333000Y-8397400I-40000J0D01*
G01*
X12587000Y-7635400D02*
G75*
G03*
X12587000Y-7635400I-40000J0D01*
G01*
X12587000Y-8397400D02*
G75*
G03*
X12587000Y-8397400I-40000J0D01*
G01*
X12841000Y-7635400D02*
G75*
G03*
X12841000Y-7635400I-40000J0D01*
G01*
X12841000Y-8397400D02*
G75*
G03*
X12841000Y-8397400I-40000J0D01*
G01*
X13095000Y-7635400D02*
G75*
G03*
X13095000Y-7635400I-40000J0D01*
G01*
X13095000Y-8397400D02*
G75*
G03*
X13095000Y-8397400I-40000J0D01*
G01*
X13349000Y-7635400D02*
G75*
G03*
X13349000Y-7635400I-40000J0D01*
G01*
X13349000Y-8397400D02*
G75*
G03*
X13349000Y-8397400I-40000J0D01*
G01*
X14085600Y-7940200D02*
G75*
G03*
X14085600Y-7940200I-40000J0D01*
G01*
X14085600Y-8702200D02*
G75*
G03*
X14085600Y-8702200I-40000J0D01*
G01*
X14339600Y-7940200D02*
G75*
G03*
X14339600Y-7940200I-40000J0D01*
G01*
X14339600Y-8702200D02*
G75*
G03*
X14339600Y-8702200I-40000J0D01*
G01*
X14593600Y-7940200D02*
G75*
G03*
X14593600Y-7940200I-40000J0D01*
G01*
X14593600Y-8702200D02*
G75*
G03*
X14593600Y-8702200I-40000J0D01*
G01*
X14847600Y-7940200D02*
G75*
G03*
X14847600Y-7940200I-40000J0D01*
G01*
X14847600Y-8702200D02*
G75*
G03*
X14847600Y-8702200I-40000J0D01*
G01*
X15101600Y-7940200D02*
G75*
G03*
X15101600Y-7940200I-40000J0D01*
G01*
X15101600Y-8702200D02*
G75*
G03*
X15101600Y-8702200I-40000J0D01*
G01*
X15697800Y-7954800D02*
G75*
G03*
X15697800Y-7954800I-40000J0D01*
G01*
X15947800Y-7954800D02*
G75*
G03*
X15947800Y-7954800I-40000J0D01*
G01*
X17134100Y-7633900D02*
G75*
G03*
X17134100Y-7633900I-40000J0D01*
G01*
X17134100Y-8395900D02*
G75*
G03*
X17134100Y-8395900I-40000J0D01*
G01*
X17388100Y-7633900D02*
G75*
G03*
X17388100Y-7633900I-40000J0D01*
G01*
X17388100Y-8395900D02*
G75*
G03*
X17388100Y-8395900I-40000J0D01*
G01*
X17642100Y-7633900D02*
G75*
G03*
X17642100Y-7633900I-40000J0D01*
G01*
X17642100Y-8395900D02*
G75*
G03*
X17642100Y-8395900I-40000J0D01*
G01*
X17896100Y-7633900D02*
G75*
G03*
X17896100Y-7633900I-40000J0D01*
G01*
X17896100Y-8395900D02*
G75*
G03*
X17896100Y-8395900I-40000J0D01*
G01*
X18150100Y-7633900D02*
G75*
G03*
X18150100Y-7633900I-40000J0D01*
G01*
X18150100Y-8395900D02*
G75*
G03*
X18150100Y-8395900I-40000J0D01*
G01*
X18404100Y-7633900D02*
G75*
G03*
X18404100Y-7633900I-40000J0D01*
G01*
X18404100Y-8395900D02*
G75*
G03*
X18404100Y-8395900I-40000J0D01*
G01*
X18658100Y-7633900D02*
G75*
G03*
X18658100Y-7633900I-40000J0D01*
G01*
X18658100Y-8395900D02*
G75*
G03*
X18658100Y-8395900I-40000J0D01*
G01*
X20766300Y-7633900D02*
G75*
G03*
X20766300Y-7633900I-40000J0D01*
G01*
X20766300Y-8395900D02*
G75*
G03*
X20766300Y-8395900I-40000J0D01*
G01*
X21020300Y-7633900D02*
G75*
G03*
X21020300Y-7633900I-40000J0D01*
G01*
X21020300Y-8395900D02*
G75*
G03*
X21020300Y-8395900I-40000J0D01*
G01*
X21274300Y-7633900D02*
G75*
G03*
X21274300Y-7633900I-40000J0D01*
G01*
X21274300Y-8395900D02*
G75*
G03*
X21274300Y-8395900I-40000J0D01*
G01*
X21528300Y-7633900D02*
G75*
G03*
X21528300Y-7633900I-40000J0D01*
G01*
X21528300Y-8395900D02*
G75*
G03*
X21528300Y-8395900I-40000J0D01*
G01*
X21782300Y-7633900D02*
G75*
G03*
X21782300Y-7633900I-40000J0D01*
G01*
X21782300Y-8395900D02*
G75*
G03*
X21782300Y-8395900I-40000J0D01*
G01*
X22036300Y-7633900D02*
G75*
G03*
X22036300Y-7633900I-40000J0D01*
G01*
X22036300Y-8395900D02*
G75*
G03*
X22036300Y-8395900I-40000J0D01*
G01*
X22290300Y-7633900D02*
G75*
G03*
X22290300Y-7633900I-40000J0D01*
G01*
X22290300Y-8395900D02*
G75*
G03*
X22290300Y-8395900I-40000J0D01*
G01*
X23686800Y-7635400D02*
G75*
G03*
X23686800Y-7635400I-40000J0D01*
G01*
X23940800Y-7635400D02*
G75*
G03*
X23940800Y-7635400I-40000J0D01*
G01*
X23940800Y-7914800D02*
G75*
G03*
X23940800Y-7914800I-40000J0D01*
G01*
X23940800Y-8676800D02*
G75*
G03*
X23940800Y-8676800I-40000J0D01*
G01*
X24194800Y-7635400D02*
G75*
G03*
X24194800Y-7635400I-40000J0D01*
G01*
X24194800Y-7914800D02*
G75*
G03*
X24194800Y-7914800I-40000J0D01*
G01*
X24194800Y-8676800D02*
G75*
G03*
X24194800Y-8676800I-40000J0D01*
G01*
X24448800Y-7635400D02*
G75*
G03*
X24448800Y-7635400I-40000J0D01*
G01*
X24448800Y-7914800D02*
G75*
G03*
X24448800Y-7914800I-40000J0D01*
G01*
X24448800Y-8676800D02*
G75*
G03*
X24448800Y-8676800I-40000J0D01*
G01*
X24702800Y-7635400D02*
G75*
G03*
X24702800Y-7635400I-40000J0D01*
G01*
X24702800Y-7914800D02*
G75*
G03*
X24702800Y-7914800I-40000J0D01*
G01*
X24702800Y-8676800D02*
G75*
G03*
X24702800Y-8676800I-40000J0D01*
G01*
X24956800Y-7635400D02*
G75*
G03*
X24956800Y-7635400I-40000J0D01*
G01*
X24956800Y-7914800D02*
G75*
G03*
X24956800Y-7914800I-40000J0D01*
G01*
X24956800Y-8676800D02*
G75*
G03*
X24956800Y-8676800I-40000J0D01*
G01*
X26734800Y-7940200D02*
G75*
G03*
X26734800Y-7940200I-40000J0D01*
G01*
X26734800Y-8702200D02*
G75*
G03*
X26734800Y-8702200I-40000J0D01*
G01*
X26988800Y-7940200D02*
G75*
G03*
X26988800Y-7940200I-40000J0D01*
G01*
X26988800Y-8702200D02*
G75*
G03*
X26988800Y-8702200I-40000J0D01*
G01*
X27242800Y-7940200D02*
G75*
G03*
X27242800Y-7940200I-40000J0D01*
G01*
X27242800Y-8702200D02*
G75*
G03*
X27242800Y-8702200I-40000J0D01*
G01*
X27496800Y-7940200D02*
G75*
G03*
X27496800Y-7940200I-40000J0D01*
G01*
X27496800Y-8702200D02*
G75*
G03*
X27496800Y-8702200I-40000J0D01*
G01*
X27750800Y-7940200D02*
G75*
G03*
X27750800Y-7940200I-40000J0D01*
G01*
X27750800Y-8702200D02*
G75*
G03*
X27750800Y-8702200I-40000J0D01*
G01*
X28004800Y-7940200D02*
G75*
G03*
X28004800Y-7940200I-40000J0D01*
G01*
X28004800Y-8702200D02*
G75*
G03*
X28004800Y-8702200I-40000J0D01*
G01*
X28258800Y-7940200D02*
G75*
G03*
X28258800Y-7940200I-40000J0D01*
G01*
X28258800Y-8702200D02*
G75*
G03*
X28258800Y-8702200I-40000J0D01*
G01*
X28512800Y-7940200D02*
G75*
G03*
X28512800Y-7940200I-40000J0D01*
G01*
X28512800Y-8702200D02*
G75*
G03*
X28512800Y-8702200I-40000J0D01*
G01*
X29199100Y-7633900D02*
G75*
G03*
X29199100Y-7633900I-40000J0D01*
G01*
X29199100Y-8395900D02*
G75*
G03*
X29199100Y-8395900I-40000J0D01*
G01*
X29453100Y-7633900D02*
G75*
G03*
X29453100Y-7633900I-40000J0D01*
G01*
X29453100Y-8395900D02*
G75*
G03*
X29453100Y-8395900I-40000J0D01*
G01*
X29707100Y-7633900D02*
G75*
G03*
X29707100Y-7633900I-40000J0D01*
G01*
X29707100Y-8395900D02*
G75*
G03*
X29707100Y-8395900I-40000J0D01*
G01*
X29961100Y-7633900D02*
G75*
G03*
X29961100Y-7633900I-40000J0D01*
G01*
X29961100Y-8395900D02*
G75*
G03*
X29961100Y-8395900I-40000J0D01*
G01*
X30215100Y-7633900D02*
G75*
G03*
X30215100Y-7633900I-40000J0D01*
G01*
X30215100Y-8395900D02*
G75*
G03*
X30215100Y-8395900I-40000J0D01*
G01*
X30469100Y-7633900D02*
G75*
G03*
X30469100Y-7633900I-40000J0D01*
G01*
X30469100Y-8395900D02*
G75*
G03*
X30469100Y-8395900I-40000J0D01*
G01*
X30723100Y-7633900D02*
G75*
G03*
X30723100Y-7633900I-40000J0D01*
G01*
X30723100Y-8395900D02*
G75*
G03*
X30723100Y-8395900I-40000J0D01*
G01*
X31205200Y-7635400D02*
G75*
G03*
X31205200Y-7635400I-40000J0D01*
G01*
X31459200Y-7635400D02*
G75*
G03*
X31459200Y-7635400I-40000J0D01*
G01*
X31713200Y-7635400D02*
G75*
G03*
X31713200Y-7635400I-40000J0D01*
G01*
X31967200Y-7635400D02*
G75*
G03*
X31967200Y-7635400I-40000J0D01*
G01*
X31967200Y-7914800D02*
G75*
G03*
X31967200Y-7914800I-40000J0D01*
G01*
X31967200Y-8676800D02*
G75*
G03*
X31967200Y-8676800I-40000J0D01*
G01*
X32221200Y-7635400D02*
G75*
G03*
X32221200Y-7635400I-40000J0D01*
G01*
X32221200Y-7914800D02*
G75*
G03*
X32221200Y-7914800I-40000J0D01*
G01*
X32221200Y-8676800D02*
G75*
G03*
X32221200Y-8676800I-40000J0D01*
G01*
X32475200Y-7635400D02*
G75*
G03*
X32475200Y-7635400I-40000J0D01*
G01*
D14*
X14045600Y-7585400D02*
X14045600Y-7685400D01*
X13995600Y-7635400D02*
X14095600Y-7635400D01*
X14299600Y-7585400D02*
X14299600Y-7685400D01*
X14249600Y-7635400D02*
X14349600Y-7635400D01*
X14553600Y-7585400D02*
X14553600Y-7685400D01*
X14503600Y-7635400D02*
X14603600Y-7635400D01*
X14807600Y-7585400D02*
X14807600Y-7685400D01*
X14757600Y-7635400D02*
X14857600Y-7635400D01*
X15061600Y-7585400D02*
X15061600Y-7685400D01*
X15011600Y-7635400D02*
X15111600Y-7635400D01*
X26694800Y-7585400D02*
X26694800Y-7685400D01*
X26644800Y-7635400D02*
X26744800Y-7635400D01*
X26948800Y-7585400D02*
X26948800Y-7685400D01*
X26898800Y-7635400D02*
X26998800Y-7635400D01*
X27202800Y-7585400D02*
X27202800Y-7685400D01*
X27152800Y-7635400D02*
X27252800Y-7635400D01*
X27456800Y-7585400D02*
X27456800Y-7685400D01*
X27406800Y-7635400D02*
X27506800Y-7635400D01*
X27710800Y-7585400D02*
X27710800Y-7685400D01*
X27660800Y-7635400D02*
X27760800Y-7635400D01*
X27964800Y-7585400D02*
X27964800Y-7685400D01*
X27914800Y-7635400D02*
X28014800Y-7635400D01*
X28218800Y-7585400D02*
X28218800Y-7685400D01*
X28168800Y-7635400D02*
X28268800Y-7635400D01*
X28472800Y-7585400D02*
X28472800Y-7685400D01*
X28422800Y-7635400D02*
X28522800Y-7635400D01*
D15*
X6486633Y-11720433D02*
X6486633Y-11614366D01*
X6380566Y-11614366D01*
X6380566Y-11720433D01*
X6486633Y-11720433D01*
X6739133Y-15720433D02*
X6739133Y-15614366D01*
X6633066Y-15614366D01*
X6633066Y-15720433D01*
X6739133Y-15720433D01*
X6808833Y-13720433D02*
X6808833Y-13614366D01*
X6702766Y-13614366D01*
X6702766Y-13720433D01*
X6808833Y-13720433D01*
X6986633Y-9720434D02*
X6986633Y-9614367D01*
X6880566Y-9614367D01*
X6880566Y-9720434D01*
X6986633Y-9720434D01*
X7121633Y-11466433D02*
X7121633Y-11360366D01*
X7015566Y-11360366D01*
X7015566Y-11466433D01*
X7121633Y-11466433D01*
X7374133Y-15466433D02*
X7374133Y-15360366D01*
X7268066Y-15360366D01*
X7268066Y-15466433D01*
X7374133Y-15466433D01*
X7443833Y-13466433D02*
X7443833Y-13360366D01*
X7337766Y-13360366D01*
X7337766Y-13466433D01*
X7443833Y-13466433D01*
X7621633Y-9466434D02*
X7621633Y-9360367D01*
X7515566Y-9360367D01*
X7515566Y-9466434D01*
X7621633Y-9466434D01*
X8486634Y-11720433D02*
X8486634Y-11614366D01*
X8380566Y-11614366D01*
X8380566Y-11720433D01*
X8486634Y-11720433D01*
X8739134Y-17720434D02*
X8739134Y-17614367D01*
X8633067Y-17614367D01*
X8633067Y-17720434D01*
X8739134Y-17720434D01*
X8786634Y-13720433D02*
X8786634Y-13614366D01*
X8680567Y-13614366D01*
X8680567Y-13720433D01*
X8786634Y-13720433D01*
X8972034Y-9720434D02*
X8972034Y-9614367D01*
X8865967Y-9614367D01*
X8865967Y-9720434D01*
X8972034Y-9720434D01*
X9121634Y-11466433D02*
X9121634Y-11360366D01*
X9015567Y-11360366D01*
X9015567Y-11466433D01*
X9121634Y-11466433D01*
X9374134Y-17466434D02*
X9374134Y-17360367D01*
X9268067Y-17360367D01*
X9268067Y-17466434D01*
X9374134Y-17466434D01*
X9421634Y-13466433D02*
X9421634Y-13360366D01*
X9315567Y-13360366D01*
X9315567Y-13466433D01*
X9421634Y-13466433D01*
X9607034Y-9466434D02*
X9607034Y-9360367D01*
X9500967Y-9360367D01*
X9500967Y-9466434D01*
X9607034Y-9466434D01*
X9686634Y-15720433D02*
X9686634Y-15614366D01*
X9580567Y-15614366D01*
X9580567Y-15720433D01*
X9686634Y-15720433D01*
X10321634Y-15466433D02*
X10321634Y-15360366D01*
X10215567Y-15360366D01*
X10215567Y-15466433D01*
X10321634Y-15466433D01*
X10486634Y-11720433D02*
X10486634Y-11614366D01*
X10380567Y-11614366D01*
X10380567Y-11720433D01*
X10486634Y-11720433D01*
X10786634Y-13720433D02*
X10786634Y-13614366D01*
X10680567Y-13614366D01*
X10680567Y-13720433D01*
X10786634Y-13720433D01*
X10972034Y-9720434D02*
X10972034Y-9614367D01*
X10865967Y-9614367D01*
X10865967Y-9720434D01*
X10972034Y-9720434D01*
X11121634Y-11466433D02*
X11121634Y-11360366D01*
X11015567Y-11360366D01*
X11015567Y-11466433D01*
X11121634Y-11466433D01*
X11421633Y-13466433D02*
X11421633Y-13360366D01*
X11315566Y-13360366D01*
X11315566Y-13466433D01*
X11421633Y-13466433D01*
X11607033Y-9466434D02*
X11607033Y-9360367D01*
X11500966Y-9360367D01*
X11500966Y-9466434D01*
X11607033Y-9466434D01*
X11686633Y-15720433D02*
X11686633Y-15614366D01*
X11580566Y-15614366D01*
X11580566Y-15720433D01*
X11686633Y-15720433D01*
X12321633Y-15466433D02*
X12321633Y-15360366D01*
X12215566Y-15360366D01*
X12215566Y-15466433D01*
X12321633Y-15466433D01*
X12486633Y-11720433D02*
X12486633Y-11614366D01*
X12380566Y-11614366D01*
X12380566Y-11720433D01*
X12486633Y-11720433D01*
X12786633Y-13720433D02*
X12786633Y-13614366D01*
X12680566Y-13614366D01*
X12680566Y-13720433D01*
X12786633Y-13720433D01*
X12972033Y-9720434D02*
X12972033Y-9614367D01*
X12865966Y-9614367D01*
X12865966Y-9720434D01*
X12972033Y-9720434D01*
X13121633Y-11466433D02*
X13121633Y-11360366D01*
X13015566Y-11360366D01*
X13015566Y-11466433D01*
X13121633Y-11466433D01*
X13421633Y-13466433D02*
X13421633Y-13360366D01*
X13315566Y-13360366D01*
X13315566Y-13466433D01*
X13421633Y-13466433D01*
X13607033Y-9466434D02*
X13607033Y-9360367D01*
X13500966Y-9360367D01*
X13500966Y-9466434D01*
X13607033Y-9466434D01*
X13686633Y-15720433D02*
X13686633Y-15614366D01*
X13580566Y-15614366D01*
X13580566Y-15720433D01*
X13686633Y-15720433D01*
X14321633Y-15466433D02*
X14321633Y-15360366D01*
X14215566Y-15360366D01*
X14215566Y-15466433D01*
X14321633Y-15466433D01*
X14486633Y-11720433D02*
X14486633Y-11614366D01*
X14380566Y-11614366D01*
X14380566Y-11720433D01*
X14486633Y-11720433D01*
X14786633Y-13720433D02*
X14786633Y-13614366D01*
X14680566Y-13614366D01*
X14680566Y-13720433D01*
X14786633Y-13720433D01*
X14986633Y-9720434D02*
X14986633Y-9614367D01*
X14880566Y-9614367D01*
X14880566Y-9720434D01*
X14986633Y-9720434D01*
X15121633Y-11466433D02*
X15121633Y-11360366D01*
X15015566Y-11360366D01*
X15015566Y-11466433D01*
X15121633Y-11466433D01*
X15421633Y-13466433D02*
X15421633Y-13360366D01*
X15315566Y-13360366D01*
X15315566Y-13466433D01*
X15421633Y-13466433D01*
X15621633Y-9466434D02*
X15621633Y-9360367D01*
X15515566Y-9360367D01*
X15515566Y-9466434D01*
X15621633Y-9466434D01*
X15686633Y-15720433D02*
X15686633Y-15614366D01*
X15580566Y-15614366D01*
X15580566Y-15720433D01*
X15686633Y-15720433D01*
X16321633Y-15466433D02*
X16321633Y-15360366D01*
X16215566Y-15360366D01*
X16215566Y-15466433D01*
X16321633Y-15466433D01*
X16486633Y-11720433D02*
X16486633Y-11614366D01*
X16380566Y-11614366D01*
X16380566Y-11720433D01*
X16486633Y-11720433D01*
X16686633Y-17720434D02*
X16686633Y-17614367D01*
X16580566Y-17614367D01*
X16580566Y-17720434D01*
X16686633Y-17720434D01*
X16786634Y-13720433D02*
X16786634Y-13614366D01*
X16680566Y-13614366D01*
X16680566Y-13720433D01*
X16786634Y-13720433D01*
X16986634Y-9720434D02*
X16986634Y-9614367D01*
X16880567Y-9614367D01*
X16880567Y-9720434D01*
X16986634Y-9720434D01*
X17121634Y-11466433D02*
X17121634Y-11360366D01*
X17015567Y-11360366D01*
X17015567Y-11466433D01*
X17121634Y-11466433D01*
X17321634Y-17466434D02*
X17321634Y-17360367D01*
X17215567Y-17360367D01*
X17215567Y-17466434D01*
X17321634Y-17466434D01*
X17421634Y-13466433D02*
X17421634Y-13360366D01*
X17315567Y-13360366D01*
X17315567Y-13466433D01*
X17421634Y-13466433D01*
X17621634Y-9466434D02*
X17621634Y-9360367D01*
X17515567Y-9360367D01*
X17515567Y-9466434D01*
X17621634Y-9466434D01*
X17686634Y-15720433D02*
X17686634Y-15614366D01*
X17580567Y-15614366D01*
X17580567Y-15720433D01*
X17686634Y-15720433D01*
X18321634Y-15466433D02*
X18321634Y-15360366D01*
X18215567Y-15360366D01*
X18215567Y-15466433D01*
X18321634Y-15466433D01*
X18486634Y-11720433D02*
X18486634Y-11614366D01*
X18380567Y-11614366D01*
X18380567Y-11720433D01*
X18486634Y-11720433D01*
X18786634Y-13720433D02*
X18786634Y-13614366D01*
X18680567Y-13614366D01*
X18680567Y-13720433D01*
X18786634Y-13720433D01*
X18986634Y-9720434D02*
X18986634Y-9614367D01*
X18880567Y-9614367D01*
X18880567Y-9720434D01*
X18986634Y-9720434D01*
X19121634Y-11466433D02*
X19121634Y-11360366D01*
X19015567Y-11360366D01*
X19015567Y-11466433D01*
X19121634Y-11466433D01*
X19421634Y-13466433D02*
X19421634Y-13360366D01*
X19315567Y-13360366D01*
X19315567Y-13466433D01*
X19421634Y-13466433D01*
X19621634Y-9466434D02*
X19621634Y-9360367D01*
X19515567Y-9360367D01*
X19515567Y-9466434D01*
X19621634Y-9466434D01*
X19686634Y-15720433D02*
X19686634Y-15614366D01*
X19580567Y-15614366D01*
X19580567Y-15720433D01*
X19686634Y-15720433D01*
X20321634Y-15466433D02*
X20321634Y-15360366D01*
X20215567Y-15360366D01*
X20215567Y-15466433D01*
X20321634Y-15466433D01*
X20486634Y-11720433D02*
X20486634Y-11614366D01*
X20380567Y-11614366D01*
X20380567Y-11720433D01*
X20486634Y-11720433D01*
X20786634Y-13720433D02*
X20786634Y-13614366D01*
X20680567Y-13614366D01*
X20680567Y-13720433D01*
X20786634Y-13720433D01*
X20986634Y-9720434D02*
X20986634Y-9614367D01*
X20880567Y-9614367D01*
X20880567Y-9720434D01*
X20986634Y-9720434D01*
X21121634Y-11466433D02*
X21121634Y-11360366D01*
X21015567Y-11360366D01*
X21015567Y-11466433D01*
X21121634Y-11466433D01*
X21421634Y-13466433D02*
X21421634Y-13360366D01*
X21315567Y-13360366D01*
X21315567Y-13466433D01*
X21421634Y-13466433D01*
X21621634Y-9466434D02*
X21621634Y-9360367D01*
X21515567Y-9360367D01*
X21515567Y-9466434D01*
X21621634Y-9466434D01*
X21686634Y-15720433D02*
X21686634Y-15614366D01*
X21580567Y-15614366D01*
X21580567Y-15720433D01*
X21686634Y-15720433D01*
X22321634Y-15466433D02*
X22321634Y-15360366D01*
X22215567Y-15360366D01*
X22215567Y-15466433D01*
X22321634Y-15466433D01*
X22486633Y-11720433D02*
X22486633Y-11614366D01*
X22380566Y-11614366D01*
X22380566Y-11720433D01*
X22486633Y-11720433D01*
X22786633Y-13720433D02*
X22786633Y-13614366D01*
X22680566Y-13614366D01*
X22680566Y-13720433D01*
X22786633Y-13720433D01*
X22986633Y-9720434D02*
X22986633Y-9614367D01*
X22880566Y-9614367D01*
X22880566Y-9720434D01*
X22986633Y-9720434D01*
X23121633Y-11466433D02*
X23121633Y-11360366D01*
X23015566Y-11360366D01*
X23015566Y-11466433D01*
X23121633Y-11466433D01*
X23421633Y-13466433D02*
X23421633Y-13360366D01*
X23315566Y-13360366D01*
X23315566Y-13466433D01*
X23421633Y-13466433D01*
X23621633Y-9466434D02*
X23621633Y-9360367D01*
X23515566Y-9360367D01*
X23515566Y-9466434D01*
X23621633Y-9466434D01*
X23686633Y-15720433D02*
X23686633Y-15614366D01*
X23580566Y-15614366D01*
X23580566Y-15720433D01*
X23686633Y-15720433D01*
X23686633Y-17720434D02*
X23686633Y-17614367D01*
X23580566Y-17614367D01*
X23580566Y-17720434D01*
X23686633Y-17720434D01*
X24321633Y-15466433D02*
X24321633Y-15360366D01*
X24215566Y-15360366D01*
X24215566Y-15466433D01*
X24321633Y-15466433D01*
X24321633Y-17466434D02*
X24321633Y-17360367D01*
X24215566Y-17360367D01*
X24215566Y-17466434D01*
X24321633Y-17466434D01*
X24486633Y-11720433D02*
X24486633Y-11614366D01*
X24380566Y-11614366D01*
X24380566Y-11720433D01*
X24486633Y-11720433D01*
X24786633Y-13720433D02*
X24786633Y-13614366D01*
X24680566Y-13614366D01*
X24680566Y-13720433D01*
X24786633Y-13720433D01*
X24986633Y-9720434D02*
X24986633Y-9614367D01*
X24880566Y-9614367D01*
X24880566Y-9720434D01*
X24986633Y-9720434D01*
X25121633Y-11466433D02*
X25121633Y-11360366D01*
X25015566Y-11360366D01*
X25015566Y-11466433D01*
X25121633Y-11466433D01*
X25421633Y-13466433D02*
X25421633Y-13360366D01*
X25315566Y-13360366D01*
X25315566Y-13466433D01*
X25421633Y-13466433D01*
X25621633Y-9466434D02*
X25621633Y-9360367D01*
X25515566Y-9360367D01*
X25515566Y-9466434D01*
X25621633Y-9466434D01*
X25686633Y-15720433D02*
X25686633Y-15614366D01*
X25580566Y-15614366D01*
X25580566Y-15720433D01*
X25686633Y-15720433D01*
X25686633Y-17720434D02*
X25686633Y-17614367D01*
X25580566Y-17614367D01*
X25580566Y-17720434D01*
X25686633Y-17720434D01*
X26321633Y-15466433D02*
X26321633Y-15360366D01*
X26215566Y-15360366D01*
X26215566Y-15466433D01*
X26321633Y-15466433D01*
X26321633Y-17466434D02*
X26321633Y-17360367D01*
X26215566Y-17360367D01*
X26215566Y-17466434D01*
X26321633Y-17466434D01*
X26486633Y-11720433D02*
X26486633Y-11614366D01*
X26380566Y-11614366D01*
X26380566Y-11720433D01*
X26486633Y-11720433D01*
X26786633Y-13720433D02*
X26786633Y-13614366D01*
X26680566Y-13614366D01*
X26680566Y-13720433D01*
X26786633Y-13720433D01*
X26986633Y-9720434D02*
X26986633Y-9614367D01*
X26880566Y-9614367D01*
X26880566Y-9720434D01*
X26986633Y-9720434D01*
X27121633Y-11466433D02*
X27121633Y-11360366D01*
X27015566Y-11360366D01*
X27015566Y-11466433D01*
X27121633Y-11466433D01*
X27421633Y-13466433D02*
X27421633Y-13360366D01*
X27315566Y-13360366D01*
X27315566Y-13466433D01*
X27421633Y-13466433D01*
X27621633Y-9466434D02*
X27621633Y-9360367D01*
X27515566Y-9360367D01*
X27515566Y-9466434D01*
X27621633Y-9466434D01*
X27686633Y-15720433D02*
X27686633Y-15614366D01*
X27580566Y-15614366D01*
X27580566Y-15720433D01*
X27686633Y-15720433D01*
X27686633Y-17720434D02*
X27686633Y-17614367D01*
X27580566Y-17614367D01*
X27580566Y-17720434D01*
X27686633Y-17720434D01*
X28321633Y-15466433D02*
X28321633Y-15360366D01*
X28215566Y-15360366D01*
X28215566Y-15466433D01*
X28321633Y-15466433D01*
X28321633Y-17466434D02*
X28321633Y-17360367D01*
X28215566Y-17360367D01*
X28215566Y-17466434D01*
X28321633Y-17466434D01*
X28486633Y-11720433D02*
X28486633Y-11614366D01*
X28380566Y-11614366D01*
X28380566Y-11720433D01*
X28486633Y-11720433D01*
X28786633Y-13720433D02*
X28786633Y-13614366D01*
X28680566Y-13614366D01*
X28680566Y-13720433D01*
X28786633Y-13720433D01*
X28986633Y-9720434D02*
X28986633Y-9614367D01*
X28880566Y-9614367D01*
X28880566Y-9720434D01*
X28986633Y-9720434D01*
X29121633Y-11466433D02*
X29121633Y-11360366D01*
X29015566Y-11360366D01*
X29015566Y-11466433D01*
X29121633Y-11466433D01*
X29421633Y-13466433D02*
X29421633Y-13360366D01*
X29315566Y-13360366D01*
X29315566Y-13466433D01*
X29421633Y-13466433D01*
X29621633Y-9466434D02*
X29621633Y-9360367D01*
X29515566Y-9360367D01*
X29515566Y-9466434D01*
X29621633Y-9466434D01*
X29686633Y-17720434D02*
X29686633Y-17614367D01*
X29580566Y-17614367D01*
X29580566Y-17720434D01*
X29686633Y-17720434D01*
X30321633Y-17466434D02*
X30321633Y-17360367D01*
X30215566Y-17360367D01*
X30215566Y-17466434D01*
X30321633Y-17466434D01*
X30486633Y-11720433D02*
X30486633Y-11614366D01*
X30380566Y-11614366D01*
X30380566Y-11720433D01*
X30486633Y-11720433D01*
X30634133Y-15720433D02*
X30634133Y-15614366D01*
X30528066Y-15614366D01*
X30528066Y-15720433D01*
X30634133Y-15720433D01*
X30986633Y-9720434D02*
X30986633Y-9614367D01*
X30880566Y-9614367D01*
X30880566Y-9720434D01*
X30986633Y-9720434D01*
X31121633Y-11466433D02*
X31121633Y-11360366D01*
X31015566Y-11360366D01*
X31015566Y-11466433D01*
X31121633Y-11466433D01*
X31269133Y-15466433D02*
X31269133Y-15360366D01*
X31163066Y-15360366D01*
X31163066Y-15466433D01*
X31269133Y-15466433D01*
X31621633Y-9466434D02*
X31621633Y-9360367D01*
X31515566Y-9360367D01*
X31515566Y-9466434D01*
X31621633Y-9466434D01*
X31686633Y-17728434D02*
X31686633Y-17622367D01*
X31580566Y-17622367D01*
X31580566Y-17728434D01*
X31686633Y-17728434D01*
X31734133Y-13720433D02*
X31734133Y-13614366D01*
X31628066Y-13614366D01*
X31628066Y-13720433D01*
X31734133Y-13720433D01*
X32321633Y-17474434D02*
X32321633Y-17368367D01*
X32215566Y-17368367D01*
X32215566Y-17474434D01*
X32321633Y-17474434D01*
X32369133Y-13466433D02*
X32369133Y-13360366D01*
X32263066Y-13360366D01*
X32263066Y-13466433D01*
X32369133Y-13466433D01*
D16*
X5468600Y-7593400D02*
X5648600Y-7413400D01*
X5468600Y-7233400D01*
X5288600Y-7413400D01*
X5468600Y-7593400D01*
X5468600Y-18593400D02*
X5648600Y-18413400D01*
X5468600Y-18233400D01*
X5288600Y-18413400D01*
X5468600Y-18593400D01*
X19468600Y-7593400D02*
X19648600Y-7413400D01*
X19468600Y-7233400D01*
X19288600Y-7413400D01*
X19468600Y-7593400D01*
X19468600Y-18593400D02*
X19648600Y-18413400D01*
X19468600Y-18233400D01*
X19288600Y-18413400D01*
X19468600Y-18593400D01*
X33468600Y-7593400D02*
X33648600Y-7413400D01*
X33468600Y-7233400D01*
X33288600Y-7413400D01*
X33468600Y-7593400D01*
X33468600Y-18593400D02*
X33648600Y-18413400D01*
X33468600Y-18233400D01*
X33288600Y-18413400D01*
X33468600Y-18593400D01*
D11*
X5223719Y-19226376D02*
X5223719Y-19026376D01*
X5271338Y-19026376D01*
X5299910Y-19035900D01*
X5318957Y-19054948D01*
X5328481Y-19073995D01*
X5338005Y-19112090D01*
X5338005Y-19140662D01*
X5328481Y-19178757D01*
X5318957Y-19197805D01*
X5299910Y-19216852D01*
X5271338Y-19226376D01*
X5223719Y-19226376D01*
X5423719Y-19226376D02*
X5423719Y-19093043D01*
X5423719Y-19131138D02*
X5433243Y-19112090D01*
X5442767Y-19102567D01*
X5461814Y-19093043D01*
X5480862Y-19093043D01*
X5547529Y-19226376D02*
X5547529Y-19093043D01*
X5547529Y-19026376D02*
X5538005Y-19035900D01*
X5547529Y-19045424D01*
X5557052Y-19035900D01*
X5547529Y-19026376D01*
X5547529Y-19045424D01*
X5671338Y-19226376D02*
X5652290Y-19216852D01*
X5642767Y-19197805D01*
X5642767Y-19026376D01*
X5776100Y-19226376D02*
X5757052Y-19216852D01*
X5747528Y-19197805D01*
X5747528Y-19026376D01*
X6004671Y-19226376D02*
X6004671Y-19026376D01*
X6071338Y-19169233D01*
X6138005Y-19026376D01*
X6138005Y-19226376D01*
X6318957Y-19226376D02*
X6318957Y-19121614D01*
X6309433Y-19102567D01*
X6290386Y-19093043D01*
X6252290Y-19093043D01*
X6233243Y-19102567D01*
X6318957Y-19216852D02*
X6299909Y-19226376D01*
X6252290Y-19226376D01*
X6233243Y-19216852D01*
X6223719Y-19197805D01*
X6223719Y-19178757D01*
X6233243Y-19159710D01*
X6252290Y-19150186D01*
X6299909Y-19150186D01*
X6318957Y-19140662D01*
X6414195Y-19093043D02*
X6414195Y-19293043D01*
X6414195Y-19102567D02*
X6433243Y-19093043D01*
X6471338Y-19093043D01*
X6490386Y-19102567D01*
X6499909Y-19112090D01*
X6509433Y-19131138D01*
X6509433Y-19188281D01*
X6499909Y-19207329D01*
X6490386Y-19216852D01*
X6471338Y-19226376D01*
X6433243Y-19226376D01*
X6414195Y-19216852D01*
X6595148Y-19207329D02*
X6604671Y-19216852D01*
X6595148Y-19226376D01*
X6585624Y-19216852D01*
X6595148Y-19207329D01*
X6595148Y-19226376D01*
X6595148Y-19102567D02*
X6604671Y-19112090D01*
X6595148Y-19121614D01*
X6585624Y-19112090D01*
X6595148Y-19102567D01*
X6595148Y-19121614D01*
D12*
X4926100Y-19535900D02*
X4966100Y-19575900D01*
X4966100Y-19535900D02*
X4926100Y-19575900D01*
D11*
X5261814Y-19446376D02*
X5280862Y-19446376D01*
X5299910Y-19455900D01*
X5309433Y-19465424D01*
X5318957Y-19484471D01*
X5328481Y-19522567D01*
X5328481Y-19570186D01*
X5318957Y-19608281D01*
X5309433Y-19627329D01*
X5299910Y-19636852D01*
X5280862Y-19646376D01*
X5261814Y-19646376D01*
X5242767Y-19636852D01*
X5233243Y-19627329D01*
X5223719Y-19608281D01*
X5214195Y-19570186D01*
X5214195Y-19522567D01*
X5223719Y-19484471D01*
X5233243Y-19465424D01*
X5242767Y-19455900D01*
X5261814Y-19446376D01*
X5414195Y-19627329D02*
X5423719Y-19636852D01*
X5414195Y-19646376D01*
X5404671Y-19636852D01*
X5414195Y-19627329D01*
X5414195Y-19646376D01*
X5595148Y-19513043D02*
X5595148Y-19646376D01*
X5547529Y-19436852D02*
X5499910Y-19579710D01*
X5623719Y-19579710D01*
X5738005Y-19446376D02*
X5757052Y-19446376D01*
X5776100Y-19455900D01*
X5785624Y-19465424D01*
X5795148Y-19484471D01*
X5804671Y-19522567D01*
X5804671Y-19570186D01*
X5795148Y-19608281D01*
X5785624Y-19627329D01*
X5776100Y-19636852D01*
X5757052Y-19646376D01*
X5738005Y-19646376D01*
X5718957Y-19636852D01*
X5709433Y-19627329D01*
X5699909Y-19608281D01*
X5690386Y-19570186D01*
X5690386Y-19522567D01*
X5699909Y-19484471D01*
X5709433Y-19465424D01*
X5718957Y-19455900D01*
X5738005Y-19446376D01*
X5928481Y-19446376D02*
X5947528Y-19446376D01*
X5966576Y-19455900D01*
X5976100Y-19465424D01*
X5985624Y-19484471D01*
X5995148Y-19522567D01*
X5995148Y-19570186D01*
X5985624Y-19608281D01*
X5976100Y-19627329D01*
X5966576Y-19636852D01*
X5947528Y-19646376D01*
X5928481Y-19646376D01*
X5909433Y-19636852D01*
X5899909Y-19627329D01*
X5890386Y-19608281D01*
X5880862Y-19570186D01*
X5880862Y-19522567D01*
X5890386Y-19484471D01*
X5899909Y-19465424D01*
X5909433Y-19455900D01*
X5928481Y-19446376D01*
X6080862Y-19646376D02*
X6080862Y-19513043D01*
X6080862Y-19532090D02*
X6090386Y-19522567D01*
X6109433Y-19513043D01*
X6138005Y-19513043D01*
X6157052Y-19522567D01*
X6166576Y-19541614D01*
X6166576Y-19646376D01*
X6166576Y-19541614D02*
X6176100Y-19522567D01*
X6195148Y-19513043D01*
X6223719Y-19513043D01*
X6242767Y-19522567D01*
X6252290Y-19541614D01*
X6252290Y-19646376D01*
X6347528Y-19646376D02*
X6347528Y-19513043D01*
X6347528Y-19532090D02*
X6357052Y-19522567D01*
X6376100Y-19513043D01*
X6404671Y-19513043D01*
X6423719Y-19522567D01*
X6433243Y-19541614D01*
X6433243Y-19646376D01*
X6433243Y-19541614D02*
X6442767Y-19522567D01*
X6461814Y-19513043D01*
X6490386Y-19513043D01*
X6509433Y-19522567D01*
X6518957Y-19541614D01*
X6518957Y-19646376D01*
X6909433Y-19436852D02*
X6738005Y-19693995D01*
X7166576Y-19446376D02*
X7185624Y-19446376D01*
X7204671Y-19455900D01*
X7214195Y-19465424D01*
X7223719Y-19484471D01*
X7233243Y-19522567D01*
X7233243Y-19570186D01*
X7223719Y-19608281D01*
X7214195Y-19627329D01*
X7204671Y-19636852D01*
X7185624Y-19646376D01*
X7166576Y-19646376D01*
X7147528Y-19636852D01*
X7138005Y-19627329D01*
X7128481Y-19608281D01*
X7118957Y-19570186D01*
X7118957Y-19522567D01*
X7128481Y-19484471D01*
X7138005Y-19465424D01*
X7147528Y-19455900D01*
X7166576Y-19446376D01*
X7318957Y-19627329D02*
X7328481Y-19636852D01*
X7318957Y-19646376D01*
X7309433Y-19636852D01*
X7318957Y-19627329D01*
X7318957Y-19646376D01*
X7452290Y-19446376D02*
X7471338Y-19446376D01*
X7490386Y-19455900D01*
X7499909Y-19465424D01*
X7509433Y-19484471D01*
X7518957Y-19522567D01*
X7518957Y-19570186D01*
X7509433Y-19608281D01*
X7499909Y-19627329D01*
X7490386Y-19636852D01*
X7471338Y-19646376D01*
X7452290Y-19646376D01*
X7433243Y-19636852D01*
X7423719Y-19627329D01*
X7414195Y-19608281D01*
X7404671Y-19570186D01*
X7404671Y-19522567D01*
X7414195Y-19484471D01*
X7423719Y-19465424D01*
X7433243Y-19455900D01*
X7452290Y-19446376D01*
X7709433Y-19646376D02*
X7595148Y-19646376D01*
X7652290Y-19646376D02*
X7652290Y-19446376D01*
X7633243Y-19474948D01*
X7614195Y-19493995D01*
X7595148Y-19503519D01*
X7890386Y-19446376D02*
X7795148Y-19446376D01*
X7785624Y-19541614D01*
X7795148Y-19532090D01*
X7814195Y-19522567D01*
X7861814Y-19522567D01*
X7880862Y-19532090D01*
X7890386Y-19541614D01*
X7899909Y-19560662D01*
X7899909Y-19608281D01*
X7890386Y-19627329D01*
X7880862Y-19636852D01*
X7861814Y-19646376D01*
X7814195Y-19646376D01*
X7795148Y-19636852D01*
X7785624Y-19627329D01*
X7966576Y-19446376D02*
X8099909Y-19446376D01*
X8014195Y-19646376D01*
X8166576Y-19446376D02*
X8166576Y-19484471D01*
X8242767Y-19446376D02*
X8242767Y-19484471D01*
X8538005Y-19722567D02*
X8528481Y-19713043D01*
X8509433Y-19684471D01*
X8499910Y-19665424D01*
X8490386Y-19636852D01*
X8480862Y-19589233D01*
X8480862Y-19551138D01*
X8490386Y-19503519D01*
X8499910Y-19474948D01*
X8509433Y-19455900D01*
X8528481Y-19427329D01*
X8538005Y-19417805D01*
X8699910Y-19513043D02*
X8699910Y-19646376D01*
X8652290Y-19436852D02*
X8604671Y-19579710D01*
X8728481Y-19579710D01*
X8890386Y-19446376D02*
X8852290Y-19446376D01*
X8833243Y-19455900D01*
X8823719Y-19465424D01*
X8804671Y-19493995D01*
X8795148Y-19532090D01*
X8795148Y-19608281D01*
X8804671Y-19627329D01*
X8814195Y-19636852D01*
X8833243Y-19646376D01*
X8871338Y-19646376D01*
X8890386Y-19636852D01*
X8899910Y-19627329D01*
X8909433Y-19608281D01*
X8909433Y-19560662D01*
X8899910Y-19541614D01*
X8890386Y-19532090D01*
X8871338Y-19522567D01*
X8833243Y-19522567D01*
X8814195Y-19532090D01*
X8804671Y-19541614D01*
X8795148Y-19560662D01*
X9147529Y-19646376D02*
X9147529Y-19446376D01*
X9233243Y-19646376D02*
X9233243Y-19541614D01*
X9223719Y-19522567D01*
X9204671Y-19513043D01*
X9176100Y-19513043D01*
X9157052Y-19522567D01*
X9147529Y-19532090D01*
X9357052Y-19646376D02*
X9338005Y-19636852D01*
X9328481Y-19627329D01*
X9318957Y-19608281D01*
X9318957Y-19551138D01*
X9328481Y-19532090D01*
X9338005Y-19522567D01*
X9357052Y-19513043D01*
X9385624Y-19513043D01*
X9404671Y-19522567D01*
X9414195Y-19532090D01*
X9423719Y-19551138D01*
X9423719Y-19608281D01*
X9414195Y-19627329D01*
X9404671Y-19636852D01*
X9385624Y-19646376D01*
X9357052Y-19646376D01*
X9538005Y-19646376D02*
X9518957Y-19636852D01*
X9509433Y-19617805D01*
X9509433Y-19446376D01*
X9690386Y-19636852D02*
X9671338Y-19646376D01*
X9633243Y-19646376D01*
X9614195Y-19636852D01*
X9604671Y-19617805D01*
X9604671Y-19541614D01*
X9614195Y-19522567D01*
X9633243Y-19513043D01*
X9671338Y-19513043D01*
X9690386Y-19522567D01*
X9699910Y-19541614D01*
X9699910Y-19560662D01*
X9604671Y-19579710D01*
X9776100Y-19636852D02*
X9795148Y-19646376D01*
X9833243Y-19646376D01*
X9852290Y-19636852D01*
X9861814Y-19617805D01*
X9861814Y-19608281D01*
X9852290Y-19589233D01*
X9833243Y-19579710D01*
X9804671Y-19579710D01*
X9785624Y-19570186D01*
X9776100Y-19551138D01*
X9776100Y-19541614D01*
X9785624Y-19522567D01*
X9804671Y-19513043D01*
X9833243Y-19513043D01*
X9852290Y-19522567D01*
X9928481Y-19722567D02*
X9938005Y-19713043D01*
X9957052Y-19684471D01*
X9966576Y-19665424D01*
X9976100Y-19636852D01*
X9985624Y-19589233D01*
X9985624Y-19551138D01*
X9976100Y-19503519D01*
X9966576Y-19474948D01*
X9957052Y-19455900D01*
X9938005Y-19427329D01*
X9928481Y-19417805D01*
D13*
X4966100Y-19819900D02*
G75*
G03*
X4966100Y-19819900I-40000J0D01*
G01*
D11*
X5261814Y-19710376D02*
X5280862Y-19710376D01*
X5299910Y-19719900D01*
X5309433Y-19729424D01*
X5318957Y-19748471D01*
X5328481Y-19786567D01*
X5328481Y-19834186D01*
X5318957Y-19872281D01*
X5309433Y-19891329D01*
X5299910Y-19900852D01*
X5280862Y-19910376D01*
X5261814Y-19910376D01*
X5242767Y-19900852D01*
X5233243Y-19891329D01*
X5223719Y-19872281D01*
X5214195Y-19834186D01*
X5214195Y-19786567D01*
X5223719Y-19748471D01*
X5233243Y-19729424D01*
X5242767Y-19719900D01*
X5261814Y-19710376D01*
X5414195Y-19891329D02*
X5423719Y-19900852D01*
X5414195Y-19910376D01*
X5404671Y-19900852D01*
X5414195Y-19891329D01*
X5414195Y-19910376D01*
X5538005Y-19796090D02*
X5518957Y-19786567D01*
X5509433Y-19777043D01*
X5499910Y-19757995D01*
X5499910Y-19748471D01*
X5509433Y-19729424D01*
X5518957Y-19719900D01*
X5538005Y-19710376D01*
X5576100Y-19710376D01*
X5595148Y-19719900D01*
X5604671Y-19729424D01*
X5614195Y-19748471D01*
X5614195Y-19757995D01*
X5604671Y-19777043D01*
X5595148Y-19786567D01*
X5576100Y-19796090D01*
X5538005Y-19796090D01*
X5518957Y-19805614D01*
X5509433Y-19815138D01*
X5499910Y-19834186D01*
X5499910Y-19872281D01*
X5509433Y-19891329D01*
X5518957Y-19900852D01*
X5538005Y-19910376D01*
X5576100Y-19910376D01*
X5595148Y-19900852D01*
X5604671Y-19891329D01*
X5614195Y-19872281D01*
X5614195Y-19834186D01*
X5604671Y-19815138D01*
X5595148Y-19805614D01*
X5576100Y-19796090D01*
X5738005Y-19710376D02*
X5757052Y-19710376D01*
X5776100Y-19719900D01*
X5785624Y-19729424D01*
X5795148Y-19748471D01*
X5804671Y-19786567D01*
X5804671Y-19834186D01*
X5795148Y-19872281D01*
X5785624Y-19891329D01*
X5776100Y-19900852D01*
X5757052Y-19910376D01*
X5738005Y-19910376D01*
X5718957Y-19900852D01*
X5709433Y-19891329D01*
X5699909Y-19872281D01*
X5690386Y-19834186D01*
X5690386Y-19786567D01*
X5699909Y-19748471D01*
X5709433Y-19729424D01*
X5718957Y-19719900D01*
X5738005Y-19710376D01*
X5928481Y-19710376D02*
X5947528Y-19710376D01*
X5966576Y-19719900D01*
X5976100Y-19729424D01*
X5985624Y-19748471D01*
X5995148Y-19786567D01*
X5995148Y-19834186D01*
X5985624Y-19872281D01*
X5976100Y-19891329D01*
X5966576Y-19900852D01*
X5947528Y-19910376D01*
X5928481Y-19910376D01*
X5909433Y-19900852D01*
X5899909Y-19891329D01*
X5890386Y-19872281D01*
X5880862Y-19834186D01*
X5880862Y-19786567D01*
X5890386Y-19748471D01*
X5899909Y-19729424D01*
X5909433Y-19719900D01*
X5928481Y-19710376D01*
X6080862Y-19910376D02*
X6080862Y-19777043D01*
X6080862Y-19796090D02*
X6090386Y-19786567D01*
X6109433Y-19777043D01*
X6138005Y-19777043D01*
X6157052Y-19786567D01*
X6166576Y-19805614D01*
X6166576Y-19910376D01*
X6166576Y-19805614D02*
X6176100Y-19786567D01*
X6195148Y-19777043D01*
X6223719Y-19777043D01*
X6242767Y-19786567D01*
X6252290Y-19805614D01*
X6252290Y-19910376D01*
X6347528Y-19910376D02*
X6347528Y-19777043D01*
X6347528Y-19796090D02*
X6357052Y-19786567D01*
X6376100Y-19777043D01*
X6404671Y-19777043D01*
X6423719Y-19786567D01*
X6433243Y-19805614D01*
X6433243Y-19910376D01*
X6433243Y-19805614D02*
X6442767Y-19786567D01*
X6461814Y-19777043D01*
X6490386Y-19777043D01*
X6509433Y-19786567D01*
X6518957Y-19805614D01*
X6518957Y-19910376D01*
X6909433Y-19700852D02*
X6738005Y-19957995D01*
X7166576Y-19710376D02*
X7185624Y-19710376D01*
X7204671Y-19719900D01*
X7214195Y-19729424D01*
X7223719Y-19748471D01*
X7233243Y-19786567D01*
X7233243Y-19834186D01*
X7223719Y-19872281D01*
X7214195Y-19891329D01*
X7204671Y-19900852D01*
X7185624Y-19910376D01*
X7166576Y-19910376D01*
X7147528Y-19900852D01*
X7138005Y-19891329D01*
X7128481Y-19872281D01*
X7118957Y-19834186D01*
X7118957Y-19786567D01*
X7128481Y-19748471D01*
X7138005Y-19729424D01*
X7147528Y-19719900D01*
X7166576Y-19710376D01*
X7318957Y-19891329D02*
X7328481Y-19900852D01*
X7318957Y-19910376D01*
X7309433Y-19900852D01*
X7318957Y-19891329D01*
X7318957Y-19910376D01*
X7452290Y-19710376D02*
X7471338Y-19710376D01*
X7490386Y-19719900D01*
X7499909Y-19729424D01*
X7509433Y-19748471D01*
X7518957Y-19786567D01*
X7518957Y-19834186D01*
X7509433Y-19872281D01*
X7499909Y-19891329D01*
X7490386Y-19900852D01*
X7471338Y-19910376D01*
X7452290Y-19910376D01*
X7433243Y-19900852D01*
X7423719Y-19891329D01*
X7414195Y-19872281D01*
X7404671Y-19834186D01*
X7404671Y-19786567D01*
X7414195Y-19748471D01*
X7423719Y-19729424D01*
X7433243Y-19719900D01*
X7452290Y-19710376D01*
X7585624Y-19710376D02*
X7709433Y-19710376D01*
X7642767Y-19786567D01*
X7671338Y-19786567D01*
X7690386Y-19796090D01*
X7699909Y-19805614D01*
X7709433Y-19824662D01*
X7709433Y-19872281D01*
X7699909Y-19891329D01*
X7690386Y-19900852D01*
X7671338Y-19910376D01*
X7614195Y-19910376D01*
X7595148Y-19900852D01*
X7585624Y-19891329D01*
X7899909Y-19910376D02*
X7785624Y-19910376D01*
X7842767Y-19910376D02*
X7842767Y-19710376D01*
X7823719Y-19738948D01*
X7804671Y-19757995D01*
X7785624Y-19767519D01*
X8080862Y-19710376D02*
X7985624Y-19710376D01*
X7976100Y-19805614D01*
X7985624Y-19796090D01*
X8004671Y-19786567D01*
X8052290Y-19786567D01*
X8071338Y-19796090D01*
X8080862Y-19805614D01*
X8090386Y-19824662D01*
X8090386Y-19872281D01*
X8080862Y-19891329D01*
X8071338Y-19900852D01*
X8052290Y-19910376D01*
X8004671Y-19910376D01*
X7985624Y-19900852D01*
X7976100Y-19891329D01*
X8166576Y-19710376D02*
X8166576Y-19748471D01*
X8242767Y-19710376D02*
X8242767Y-19748471D01*
X8538005Y-19986567D02*
X8528481Y-19977043D01*
X8509433Y-19948471D01*
X8499910Y-19929424D01*
X8490386Y-19900852D01*
X8480862Y-19853233D01*
X8480862Y-19815138D01*
X8490386Y-19767519D01*
X8499910Y-19738948D01*
X8509433Y-19719900D01*
X8528481Y-19691329D01*
X8538005Y-19681805D01*
X8718957Y-19910376D02*
X8604671Y-19910376D01*
X8661814Y-19910376D02*
X8661814Y-19710376D01*
X8642767Y-19738948D01*
X8623719Y-19757995D01*
X8604671Y-19767519D01*
X8899910Y-19710376D02*
X8804671Y-19710376D01*
X8795148Y-19805614D01*
X8804671Y-19796090D01*
X8823719Y-19786567D01*
X8871338Y-19786567D01*
X8890386Y-19796090D01*
X8899910Y-19805614D01*
X8909433Y-19824662D01*
X8909433Y-19872281D01*
X8899910Y-19891329D01*
X8890386Y-19900852D01*
X8871338Y-19910376D01*
X8823719Y-19910376D01*
X8804671Y-19900852D01*
X8795148Y-19891329D01*
X9080862Y-19710376D02*
X9042767Y-19710376D01*
X9023719Y-19719900D01*
X9014195Y-19729424D01*
X8995148Y-19757995D01*
X8985624Y-19796090D01*
X8985624Y-19872281D01*
X8995148Y-19891329D01*
X9004671Y-19900852D01*
X9023719Y-19910376D01*
X9061814Y-19910376D01*
X9080862Y-19900852D01*
X9090386Y-19891329D01*
X9099910Y-19872281D01*
X9099910Y-19824662D01*
X9090386Y-19805614D01*
X9080862Y-19796090D01*
X9061814Y-19786567D01*
X9023719Y-19786567D01*
X9004671Y-19796090D01*
X8995148Y-19805614D01*
X8985624Y-19824662D01*
X9338005Y-19910376D02*
X9338005Y-19710376D01*
X9423719Y-19910376D02*
X9423719Y-19805614D01*
X9414195Y-19786567D01*
X9395148Y-19777043D01*
X9366576Y-19777043D01*
X9347529Y-19786567D01*
X9338005Y-19796090D01*
X9547529Y-19910376D02*
X9528481Y-19900852D01*
X9518957Y-19891329D01*
X9509433Y-19872281D01*
X9509433Y-19815138D01*
X9518957Y-19796090D01*
X9528481Y-19786567D01*
X9547529Y-19777043D01*
X9576100Y-19777043D01*
X9595148Y-19786567D01*
X9604671Y-19796090D01*
X9614195Y-19815138D01*
X9614195Y-19872281D01*
X9604671Y-19891329D01*
X9595148Y-19900852D01*
X9576100Y-19910376D01*
X9547529Y-19910376D01*
X9728481Y-19910376D02*
X9709433Y-19900852D01*
X9699910Y-19881805D01*
X9699910Y-19710376D01*
X9880862Y-19900852D02*
X9861814Y-19910376D01*
X9823719Y-19910376D01*
X9804671Y-19900852D01*
X9795148Y-19881805D01*
X9795148Y-19805614D01*
X9804671Y-19786567D01*
X9823719Y-19777043D01*
X9861814Y-19777043D01*
X9880862Y-19786567D01*
X9890386Y-19805614D01*
X9890386Y-19824662D01*
X9795148Y-19843710D01*
X9966576Y-19900852D02*
X9985624Y-19910376D01*
X10023719Y-19910376D01*
X10042767Y-19900852D01*
X10052290Y-19881805D01*
X10052290Y-19872281D01*
X10042767Y-19853233D01*
X10023719Y-19843710D01*
X9995148Y-19843710D01*
X9976100Y-19834186D01*
X9966576Y-19815138D01*
X9966576Y-19805614D01*
X9976100Y-19786567D01*
X9995148Y-19777043D01*
X10023719Y-19777043D01*
X10042767Y-19786567D01*
X10118957Y-19986567D02*
X10128481Y-19977043D01*
X10147529Y-19948471D01*
X10157052Y-19929424D01*
X10166576Y-19900852D01*
X10176100Y-19853233D01*
X10176100Y-19815138D01*
X10166576Y-19767519D01*
X10157052Y-19738948D01*
X10147529Y-19719900D01*
X10128481Y-19691329D01*
X10118957Y-19681805D01*
D14*
X4916100Y-20033900D02*
X4916100Y-20133900D01*
X4866100Y-20083900D02*
X4966100Y-20083900D01*
D11*
X5328481Y-20174376D02*
X5214195Y-20174376D01*
X5271338Y-20174376D02*
X5271338Y-19974376D01*
X5252290Y-20002948D01*
X5233243Y-20021995D01*
X5214195Y-20031519D01*
X5414195Y-20155329D02*
X5423719Y-20164852D01*
X5414195Y-20174376D01*
X5404671Y-20164852D01*
X5414195Y-20155329D01*
X5414195Y-20174376D01*
X5547529Y-19974376D02*
X5566576Y-19974376D01*
X5585624Y-19983900D01*
X5595148Y-19993424D01*
X5604671Y-20012471D01*
X5614195Y-20050567D01*
X5614195Y-20098186D01*
X5604671Y-20136281D01*
X5595148Y-20155329D01*
X5585624Y-20164852D01*
X5566576Y-20174376D01*
X5547529Y-20174376D01*
X5528481Y-20164852D01*
X5518957Y-20155329D01*
X5509433Y-20136281D01*
X5499910Y-20098186D01*
X5499910Y-20050567D01*
X5509433Y-20012471D01*
X5518957Y-19993424D01*
X5528481Y-19983900D01*
X5547529Y-19974376D01*
X5738005Y-19974376D02*
X5757052Y-19974376D01*
X5776100Y-19983900D01*
X5785624Y-19993424D01*
X5795148Y-20012471D01*
X5804671Y-20050567D01*
X5804671Y-20098186D01*
X5795148Y-20136281D01*
X5785624Y-20155329D01*
X5776100Y-20164852D01*
X5757052Y-20174376D01*
X5738005Y-20174376D01*
X5718957Y-20164852D01*
X5709433Y-20155329D01*
X5699909Y-20136281D01*
X5690386Y-20098186D01*
X5690386Y-20050567D01*
X5699909Y-20012471D01*
X5709433Y-19993424D01*
X5718957Y-19983900D01*
X5738005Y-19974376D01*
X5928481Y-19974376D02*
X5947528Y-19974376D01*
X5966576Y-19983900D01*
X5976100Y-19993424D01*
X5985624Y-20012471D01*
X5995148Y-20050567D01*
X5995148Y-20098186D01*
X5985624Y-20136281D01*
X5976100Y-20155329D01*
X5966576Y-20164852D01*
X5947528Y-20174376D01*
X5928481Y-20174376D01*
X5909433Y-20164852D01*
X5899909Y-20155329D01*
X5890386Y-20136281D01*
X5880862Y-20098186D01*
X5880862Y-20050567D01*
X5890386Y-20012471D01*
X5899909Y-19993424D01*
X5909433Y-19983900D01*
X5928481Y-19974376D01*
X6080862Y-20174376D02*
X6080862Y-20041043D01*
X6080862Y-20060090D02*
X6090386Y-20050567D01*
X6109433Y-20041043D01*
X6138005Y-20041043D01*
X6157052Y-20050567D01*
X6166576Y-20069614D01*
X6166576Y-20174376D01*
X6166576Y-20069614D02*
X6176100Y-20050567D01*
X6195148Y-20041043D01*
X6223719Y-20041043D01*
X6242767Y-20050567D01*
X6252290Y-20069614D01*
X6252290Y-20174376D01*
X6347528Y-20174376D02*
X6347528Y-20041043D01*
X6347528Y-20060090D02*
X6357052Y-20050567D01*
X6376100Y-20041043D01*
X6404671Y-20041043D01*
X6423719Y-20050567D01*
X6433243Y-20069614D01*
X6433243Y-20174376D01*
X6433243Y-20069614D02*
X6442767Y-20050567D01*
X6461814Y-20041043D01*
X6490386Y-20041043D01*
X6509433Y-20050567D01*
X6518957Y-20069614D01*
X6518957Y-20174376D01*
X6909433Y-19964852D02*
X6738005Y-20221995D01*
X7166576Y-19974376D02*
X7185624Y-19974376D01*
X7204671Y-19983900D01*
X7214195Y-19993424D01*
X7223719Y-20012471D01*
X7233243Y-20050567D01*
X7233243Y-20098186D01*
X7223719Y-20136281D01*
X7214195Y-20155329D01*
X7204671Y-20164852D01*
X7185624Y-20174376D01*
X7166576Y-20174376D01*
X7147528Y-20164852D01*
X7138005Y-20155329D01*
X7128481Y-20136281D01*
X7118957Y-20098186D01*
X7118957Y-20050567D01*
X7128481Y-20012471D01*
X7138005Y-19993424D01*
X7147528Y-19983900D01*
X7166576Y-19974376D01*
X7318957Y-20155329D02*
X7328481Y-20164852D01*
X7318957Y-20174376D01*
X7309433Y-20164852D01*
X7318957Y-20155329D01*
X7318957Y-20174376D01*
X7452290Y-19974376D02*
X7471338Y-19974376D01*
X7490386Y-19983900D01*
X7499909Y-19993424D01*
X7509433Y-20012471D01*
X7518957Y-20050567D01*
X7518957Y-20098186D01*
X7509433Y-20136281D01*
X7499909Y-20155329D01*
X7490386Y-20164852D01*
X7471338Y-20174376D01*
X7452290Y-20174376D01*
X7433243Y-20164852D01*
X7423719Y-20155329D01*
X7414195Y-20136281D01*
X7404671Y-20098186D01*
X7404671Y-20050567D01*
X7414195Y-20012471D01*
X7423719Y-19993424D01*
X7433243Y-19983900D01*
X7452290Y-19974376D01*
X7585624Y-19974376D02*
X7709433Y-19974376D01*
X7642767Y-20050567D01*
X7671338Y-20050567D01*
X7690386Y-20060090D01*
X7699909Y-20069614D01*
X7709433Y-20088662D01*
X7709433Y-20136281D01*
X7699909Y-20155329D01*
X7690386Y-20164852D01*
X7671338Y-20174376D01*
X7614195Y-20174376D01*
X7595148Y-20164852D01*
X7585624Y-20155329D01*
X7804671Y-20174376D02*
X7842767Y-20174376D01*
X7861814Y-20164852D01*
X7871338Y-20155329D01*
X7890386Y-20126757D01*
X7899909Y-20088662D01*
X7899909Y-20012471D01*
X7890386Y-19993424D01*
X7880862Y-19983900D01*
X7861814Y-19974376D01*
X7823719Y-19974376D01*
X7804671Y-19983900D01*
X7795148Y-19993424D01*
X7785624Y-20012471D01*
X7785624Y-20060090D01*
X7795148Y-20079138D01*
X7804671Y-20088662D01*
X7823719Y-20098186D01*
X7861814Y-20098186D01*
X7880862Y-20088662D01*
X7890386Y-20079138D01*
X7899909Y-20060090D01*
X8071338Y-20041043D02*
X8071338Y-20174376D01*
X8023719Y-19964852D02*
X7976100Y-20107710D01*
X8099909Y-20107710D01*
X8166576Y-19974376D02*
X8166576Y-20012471D01*
X8242767Y-19974376D02*
X8242767Y-20012471D01*
X8538005Y-20250567D02*
X8528481Y-20241043D01*
X8509433Y-20212471D01*
X8499910Y-20193424D01*
X8490386Y-20164852D01*
X8480862Y-20117233D01*
X8480862Y-20079138D01*
X8490386Y-20031519D01*
X8499910Y-20002948D01*
X8509433Y-19983900D01*
X8528481Y-19955329D01*
X8538005Y-19945805D01*
X8718957Y-20174376D02*
X8604671Y-20174376D01*
X8661814Y-20174376D02*
X8661814Y-19974376D01*
X8642767Y-20002948D01*
X8623719Y-20021995D01*
X8604671Y-20031519D01*
X8785624Y-19974376D02*
X8909433Y-19974376D01*
X8842767Y-20050567D01*
X8871338Y-20050567D01*
X8890386Y-20060090D01*
X8899910Y-20069614D01*
X8909433Y-20088662D01*
X8909433Y-20136281D01*
X8899910Y-20155329D01*
X8890386Y-20164852D01*
X8871338Y-20174376D01*
X8814195Y-20174376D01*
X8795148Y-20164852D01*
X8785624Y-20155329D01*
X9147529Y-20174376D02*
X9147529Y-19974376D01*
X9233243Y-20174376D02*
X9233243Y-20069614D01*
X9223719Y-20050567D01*
X9204671Y-20041043D01*
X9176100Y-20041043D01*
X9157052Y-20050567D01*
X9147529Y-20060090D01*
X9357052Y-20174376D02*
X9338005Y-20164852D01*
X9328481Y-20155329D01*
X9318957Y-20136281D01*
X9318957Y-20079138D01*
X9328481Y-20060090D01*
X9338005Y-20050567D01*
X9357052Y-20041043D01*
X9385624Y-20041043D01*
X9404671Y-20050567D01*
X9414195Y-20060090D01*
X9423719Y-20079138D01*
X9423719Y-20136281D01*
X9414195Y-20155329D01*
X9404671Y-20164852D01*
X9385624Y-20174376D01*
X9357052Y-20174376D01*
X9538005Y-20174376D02*
X9518957Y-20164852D01*
X9509433Y-20145805D01*
X9509433Y-19974376D01*
X9690386Y-20164852D02*
X9671338Y-20174376D01*
X9633243Y-20174376D01*
X9614195Y-20164852D01*
X9604671Y-20145805D01*
X9604671Y-20069614D01*
X9614195Y-20050567D01*
X9633243Y-20041043D01*
X9671338Y-20041043D01*
X9690386Y-20050567D01*
X9699910Y-20069614D01*
X9699910Y-20088662D01*
X9604671Y-20107710D01*
X9776100Y-20164852D02*
X9795148Y-20174376D01*
X9833243Y-20174376D01*
X9852290Y-20164852D01*
X9861814Y-20145805D01*
X9861814Y-20136281D01*
X9852290Y-20117233D01*
X9833243Y-20107710D01*
X9804671Y-20107710D01*
X9785624Y-20098186D01*
X9776100Y-20079138D01*
X9776100Y-20069614D01*
X9785624Y-20050567D01*
X9804671Y-20041043D01*
X9833243Y-20041043D01*
X9852290Y-20050567D01*
X9928481Y-20250567D02*
X9938005Y-20241043D01*
X9957052Y-20212471D01*
X9966576Y-20193424D01*
X9976100Y-20164852D01*
X9985624Y-20117233D01*
X9985624Y-20079138D01*
X9976100Y-20031519D01*
X9966576Y-20002948D01*
X9957052Y-19983900D01*
X9938005Y-19955329D01*
X9928481Y-19945805D01*
D15*
X4944134Y-20400934D02*
X4944134Y-20294867D01*
X4838067Y-20294867D01*
X4838067Y-20400934D01*
X4944134Y-20400934D01*
D11*
X5328481Y-20438376D02*
X5214195Y-20438376D01*
X5271338Y-20438376D02*
X5271338Y-20238376D01*
X5252290Y-20266948D01*
X5233243Y-20285995D01*
X5214195Y-20295519D01*
X5414195Y-20419329D02*
X5423719Y-20428852D01*
X5414195Y-20438376D01*
X5404671Y-20428852D01*
X5414195Y-20419329D01*
X5414195Y-20438376D01*
X5604671Y-20238376D02*
X5509433Y-20238376D01*
X5499910Y-20333614D01*
X5509433Y-20324090D01*
X5528481Y-20314567D01*
X5576100Y-20314567D01*
X5595148Y-20324090D01*
X5604671Y-20333614D01*
X5614195Y-20352662D01*
X5614195Y-20400281D01*
X5604671Y-20419329D01*
X5595148Y-20428852D01*
X5576100Y-20438376D01*
X5528481Y-20438376D01*
X5509433Y-20428852D01*
X5499910Y-20419329D01*
X5738005Y-20238376D02*
X5757052Y-20238376D01*
X5776100Y-20247900D01*
X5785624Y-20257424D01*
X5795148Y-20276471D01*
X5804671Y-20314567D01*
X5804671Y-20362186D01*
X5795148Y-20400281D01*
X5785624Y-20419329D01*
X5776100Y-20428852D01*
X5757052Y-20438376D01*
X5738005Y-20438376D01*
X5718957Y-20428852D01*
X5709433Y-20419329D01*
X5699909Y-20400281D01*
X5690386Y-20362186D01*
X5690386Y-20314567D01*
X5699909Y-20276471D01*
X5709433Y-20257424D01*
X5718957Y-20247900D01*
X5738005Y-20238376D01*
X5928481Y-20238376D02*
X5947528Y-20238376D01*
X5966576Y-20247900D01*
X5976100Y-20257424D01*
X5985624Y-20276471D01*
X5995148Y-20314567D01*
X5995148Y-20362186D01*
X5985624Y-20400281D01*
X5976100Y-20419329D01*
X5966576Y-20428852D01*
X5947528Y-20438376D01*
X5928481Y-20438376D01*
X5909433Y-20428852D01*
X5899909Y-20419329D01*
X5890386Y-20400281D01*
X5880862Y-20362186D01*
X5880862Y-20314567D01*
X5890386Y-20276471D01*
X5899909Y-20257424D01*
X5909433Y-20247900D01*
X5928481Y-20238376D01*
X6080862Y-20438376D02*
X6080862Y-20305043D01*
X6080862Y-20324090D02*
X6090386Y-20314567D01*
X6109433Y-20305043D01*
X6138005Y-20305043D01*
X6157052Y-20314567D01*
X6166576Y-20333614D01*
X6166576Y-20438376D01*
X6166576Y-20333614D02*
X6176100Y-20314567D01*
X6195148Y-20305043D01*
X6223719Y-20305043D01*
X6242767Y-20314567D01*
X6252290Y-20333614D01*
X6252290Y-20438376D01*
X6347528Y-20438376D02*
X6347528Y-20305043D01*
X6347528Y-20324090D02*
X6357052Y-20314567D01*
X6376100Y-20305043D01*
X6404671Y-20305043D01*
X6423719Y-20314567D01*
X6433243Y-20333614D01*
X6433243Y-20438376D01*
X6433243Y-20333614D02*
X6442767Y-20314567D01*
X6461814Y-20305043D01*
X6490386Y-20305043D01*
X6509433Y-20314567D01*
X6518957Y-20333614D01*
X6518957Y-20438376D01*
X6909433Y-20228852D02*
X6738005Y-20485995D01*
X7166576Y-20238376D02*
X7185624Y-20238376D01*
X7204671Y-20247900D01*
X7214195Y-20257424D01*
X7223719Y-20276471D01*
X7233243Y-20314567D01*
X7233243Y-20362186D01*
X7223719Y-20400281D01*
X7214195Y-20419329D01*
X7204671Y-20428852D01*
X7185624Y-20438376D01*
X7166576Y-20438376D01*
X7147528Y-20428852D01*
X7138005Y-20419329D01*
X7128481Y-20400281D01*
X7118957Y-20362186D01*
X7118957Y-20314567D01*
X7128481Y-20276471D01*
X7138005Y-20257424D01*
X7147528Y-20247900D01*
X7166576Y-20238376D01*
X7318957Y-20419329D02*
X7328481Y-20428852D01*
X7318957Y-20438376D01*
X7309433Y-20428852D01*
X7318957Y-20419329D01*
X7318957Y-20438376D01*
X7452290Y-20238376D02*
X7471338Y-20238376D01*
X7490386Y-20247900D01*
X7499909Y-20257424D01*
X7509433Y-20276471D01*
X7518957Y-20314567D01*
X7518957Y-20362186D01*
X7509433Y-20400281D01*
X7499909Y-20419329D01*
X7490386Y-20428852D01*
X7471338Y-20438376D01*
X7452290Y-20438376D01*
X7433243Y-20428852D01*
X7423719Y-20419329D01*
X7414195Y-20400281D01*
X7404671Y-20362186D01*
X7404671Y-20314567D01*
X7414195Y-20276471D01*
X7423719Y-20257424D01*
X7433243Y-20247900D01*
X7452290Y-20238376D01*
X7699909Y-20238376D02*
X7604671Y-20238376D01*
X7595148Y-20333614D01*
X7604671Y-20324090D01*
X7623719Y-20314567D01*
X7671338Y-20314567D01*
X7690386Y-20324090D01*
X7699909Y-20333614D01*
X7709433Y-20352662D01*
X7709433Y-20400281D01*
X7699909Y-20419329D01*
X7690386Y-20428852D01*
X7671338Y-20438376D01*
X7623719Y-20438376D01*
X7604671Y-20428852D01*
X7595148Y-20419329D01*
X7804671Y-20438376D02*
X7842767Y-20438376D01*
X7861814Y-20428852D01*
X7871338Y-20419329D01*
X7890386Y-20390757D01*
X7899909Y-20352662D01*
X7899909Y-20276471D01*
X7890386Y-20257424D01*
X7880862Y-20247900D01*
X7861814Y-20238376D01*
X7823719Y-20238376D01*
X7804671Y-20247900D01*
X7795148Y-20257424D01*
X7785624Y-20276471D01*
X7785624Y-20324090D01*
X7795148Y-20343138D01*
X7804671Y-20352662D01*
X7823719Y-20362186D01*
X7861814Y-20362186D01*
X7880862Y-20352662D01*
X7890386Y-20343138D01*
X7899909Y-20324090D01*
X8090386Y-20438376D02*
X7976100Y-20438376D01*
X8033243Y-20438376D02*
X8033243Y-20238376D01*
X8014195Y-20266948D01*
X7995148Y-20285995D01*
X7976100Y-20295519D01*
X8166576Y-20238376D02*
X8166576Y-20276471D01*
X8242767Y-20238376D02*
X8242767Y-20276471D01*
X8538005Y-20514567D02*
X8528481Y-20505043D01*
X8509433Y-20476471D01*
X8499910Y-20457424D01*
X8490386Y-20428852D01*
X8480862Y-20381233D01*
X8480862Y-20343138D01*
X8490386Y-20295519D01*
X8499910Y-20266948D01*
X8509433Y-20247900D01*
X8528481Y-20219329D01*
X8538005Y-20209805D01*
X8718957Y-20438376D02*
X8604671Y-20438376D01*
X8661814Y-20438376D02*
X8661814Y-20238376D01*
X8642767Y-20266948D01*
X8623719Y-20285995D01*
X8604671Y-20295519D01*
X8909433Y-20438376D02*
X8795148Y-20438376D01*
X8852290Y-20438376D02*
X8852290Y-20238376D01*
X8833243Y-20266948D01*
X8814195Y-20285995D01*
X8795148Y-20295519D01*
X9080862Y-20238376D02*
X9042767Y-20238376D01*
X9023719Y-20247900D01*
X9014195Y-20257424D01*
X8995148Y-20285995D01*
X8985624Y-20324090D01*
X8985624Y-20400281D01*
X8995148Y-20419329D01*
X9004671Y-20428852D01*
X9023719Y-20438376D01*
X9061814Y-20438376D01*
X9080862Y-20428852D01*
X9090386Y-20419329D01*
X9099910Y-20400281D01*
X9099910Y-20352662D01*
X9090386Y-20333614D01*
X9080862Y-20324090D01*
X9061814Y-20314567D01*
X9023719Y-20314567D01*
X9004671Y-20324090D01*
X8995148Y-20333614D01*
X8985624Y-20352662D01*
X9338005Y-20438376D02*
X9338005Y-20238376D01*
X9423719Y-20438376D02*
X9423719Y-20333614D01*
X9414195Y-20314567D01*
X9395148Y-20305043D01*
X9366576Y-20305043D01*
X9347529Y-20314567D01*
X9338005Y-20324090D01*
X9547529Y-20438376D02*
X9528481Y-20428852D01*
X9518957Y-20419329D01*
X9509433Y-20400281D01*
X9509433Y-20343138D01*
X9518957Y-20324090D01*
X9528481Y-20314567D01*
X9547529Y-20305043D01*
X9576100Y-20305043D01*
X9595148Y-20314567D01*
X9604671Y-20324090D01*
X9614195Y-20343138D01*
X9614195Y-20400281D01*
X9604671Y-20419329D01*
X9595148Y-20428852D01*
X9576100Y-20438376D01*
X9547529Y-20438376D01*
X9728481Y-20438376D02*
X9709433Y-20428852D01*
X9699910Y-20409805D01*
X9699910Y-20238376D01*
X9880862Y-20428852D02*
X9861814Y-20438376D01*
X9823719Y-20438376D01*
X9804671Y-20428852D01*
X9795148Y-20409805D01*
X9795148Y-20333614D01*
X9804671Y-20314567D01*
X9823719Y-20305043D01*
X9861814Y-20305043D01*
X9880862Y-20314567D01*
X9890386Y-20333614D01*
X9890386Y-20352662D01*
X9795148Y-20371710D01*
X9966576Y-20428852D02*
X9985624Y-20438376D01*
X10023719Y-20438376D01*
X10042767Y-20428852D01*
X10052290Y-20409805D01*
X10052290Y-20400281D01*
X10042767Y-20381233D01*
X10023719Y-20371710D01*
X9995148Y-20371710D01*
X9976100Y-20362186D01*
X9966576Y-20343138D01*
X9966576Y-20333614D01*
X9976100Y-20314567D01*
X9995148Y-20305043D01*
X10023719Y-20305043D01*
X10042767Y-20314567D01*
X10118957Y-20514567D02*
X10128481Y-20505043D01*
X10147529Y-20476471D01*
X10157052Y-20457424D01*
X10166576Y-20428852D01*
X10176100Y-20381233D01*
X10176100Y-20343138D01*
X10166576Y-20295519D01*
X10157052Y-20266948D01*
X10147529Y-20247900D01*
X10128481Y-20219329D01*
X10118957Y-20209805D01*
X4866100Y-20717900D02*
X4966100Y-20617900D01*
X4866100Y-20517900D01*
X4766100Y-20617900D01*
X4866100Y-20717900D01*
X5204671Y-20508376D02*
X5328481Y-20508376D01*
X5261814Y-20584567D01*
X5290386Y-20584567D01*
X5309433Y-20594090D01*
X5318957Y-20603614D01*
X5328481Y-20622662D01*
X5328481Y-20670281D01*
X5318957Y-20689329D01*
X5309433Y-20698852D01*
X5290386Y-20708376D01*
X5233243Y-20708376D01*
X5214195Y-20698852D01*
X5204671Y-20689329D01*
X5414195Y-20689329D02*
X5423719Y-20698852D01*
X5414195Y-20708376D01*
X5404671Y-20698852D01*
X5414195Y-20689329D01*
X5414195Y-20708376D01*
X5595148Y-20508376D02*
X5557052Y-20508376D01*
X5538005Y-20517900D01*
X5528481Y-20527424D01*
X5509433Y-20555995D01*
X5499910Y-20594090D01*
X5499910Y-20670281D01*
X5509433Y-20689329D01*
X5518957Y-20698852D01*
X5538005Y-20708376D01*
X5576100Y-20708376D01*
X5595148Y-20698852D01*
X5604671Y-20689329D01*
X5614195Y-20670281D01*
X5614195Y-20622662D01*
X5604671Y-20603614D01*
X5595148Y-20594090D01*
X5576100Y-20584567D01*
X5538005Y-20584567D01*
X5518957Y-20594090D01*
X5509433Y-20603614D01*
X5499910Y-20622662D01*
X5738005Y-20508376D02*
X5757052Y-20508376D01*
X5776100Y-20517900D01*
X5785624Y-20527424D01*
X5795148Y-20546471D01*
X5804671Y-20584567D01*
X5804671Y-20632186D01*
X5795148Y-20670281D01*
X5785624Y-20689329D01*
X5776100Y-20698852D01*
X5757052Y-20708376D01*
X5738005Y-20708376D01*
X5718957Y-20698852D01*
X5709433Y-20689329D01*
X5699909Y-20670281D01*
X5690386Y-20632186D01*
X5690386Y-20584567D01*
X5699909Y-20546471D01*
X5709433Y-20527424D01*
X5718957Y-20517900D01*
X5738005Y-20508376D01*
X5928481Y-20508376D02*
X5947528Y-20508376D01*
X5966576Y-20517900D01*
X5976100Y-20527424D01*
X5985624Y-20546471D01*
X5995148Y-20584567D01*
X5995148Y-20632186D01*
X5985624Y-20670281D01*
X5976100Y-20689329D01*
X5966576Y-20698852D01*
X5947528Y-20708376D01*
X5928481Y-20708376D01*
X5909433Y-20698852D01*
X5899909Y-20689329D01*
X5890386Y-20670281D01*
X5880862Y-20632186D01*
X5880862Y-20584567D01*
X5890386Y-20546471D01*
X5899909Y-20527424D01*
X5909433Y-20517900D01*
X5928481Y-20508376D01*
X6080862Y-20708376D02*
X6080862Y-20575043D01*
X6080862Y-20594090D02*
X6090386Y-20584567D01*
X6109433Y-20575043D01*
X6138005Y-20575043D01*
X6157052Y-20584567D01*
X6166576Y-20603614D01*
X6166576Y-20708376D01*
X6166576Y-20603614D02*
X6176100Y-20584567D01*
X6195148Y-20575043D01*
X6223719Y-20575043D01*
X6242767Y-20584567D01*
X6252290Y-20603614D01*
X6252290Y-20708376D01*
X6347528Y-20708376D02*
X6347528Y-20575043D01*
X6347528Y-20594090D02*
X6357052Y-20584567D01*
X6376100Y-20575043D01*
X6404671Y-20575043D01*
X6423719Y-20584567D01*
X6433243Y-20603614D01*
X6433243Y-20708376D01*
X6433243Y-20603614D02*
X6442767Y-20584567D01*
X6461814Y-20575043D01*
X6490386Y-20575043D01*
X6509433Y-20584567D01*
X6518957Y-20603614D01*
X6518957Y-20708376D01*
X6909433Y-20498852D02*
X6738005Y-20755995D01*
X7166576Y-20508376D02*
X7185624Y-20508376D01*
X7204671Y-20517900D01*
X7214195Y-20527424D01*
X7223719Y-20546471D01*
X7233243Y-20584567D01*
X7233243Y-20632186D01*
X7223719Y-20670281D01*
X7214195Y-20689329D01*
X7204671Y-20698852D01*
X7185624Y-20708376D01*
X7166576Y-20708376D01*
X7147528Y-20698852D01*
X7138005Y-20689329D01*
X7128481Y-20670281D01*
X7118957Y-20632186D01*
X7118957Y-20584567D01*
X7128481Y-20546471D01*
X7138005Y-20527424D01*
X7147528Y-20517900D01*
X7166576Y-20508376D01*
X7318957Y-20689329D02*
X7328481Y-20698852D01*
X7318957Y-20708376D01*
X7309433Y-20698852D01*
X7318957Y-20689329D01*
X7318957Y-20708376D01*
X7518957Y-20708376D02*
X7404671Y-20708376D01*
X7461814Y-20708376D02*
X7461814Y-20508376D01*
X7442767Y-20536948D01*
X7423719Y-20555995D01*
X7404671Y-20565519D01*
X7690386Y-20575043D02*
X7690386Y-20708376D01*
X7642767Y-20498852D02*
X7595148Y-20641710D01*
X7718957Y-20641710D01*
X7899909Y-20708376D02*
X7785624Y-20708376D01*
X7842767Y-20708376D02*
X7842767Y-20508376D01*
X7823719Y-20536948D01*
X7804671Y-20555995D01*
X7785624Y-20565519D01*
X7966576Y-20508376D02*
X8099909Y-20508376D01*
X8014195Y-20708376D01*
X8166576Y-20508376D02*
X8166576Y-20546471D01*
X8242767Y-20508376D02*
X8242767Y-20546471D01*
X8538005Y-20784567D02*
X8528481Y-20775043D01*
X8509433Y-20746471D01*
X8499910Y-20727424D01*
X8490386Y-20698852D01*
X8480862Y-20651233D01*
X8480862Y-20613138D01*
X8490386Y-20565519D01*
X8499910Y-20536948D01*
X8509433Y-20517900D01*
X8528481Y-20489329D01*
X8538005Y-20479805D01*
X8699910Y-20508376D02*
X8661814Y-20508376D01*
X8642767Y-20517900D01*
X8633243Y-20527424D01*
X8614195Y-20555995D01*
X8604671Y-20594090D01*
X8604671Y-20670281D01*
X8614195Y-20689329D01*
X8623719Y-20698852D01*
X8642767Y-20708376D01*
X8680862Y-20708376D01*
X8699910Y-20698852D01*
X8709433Y-20689329D01*
X8718957Y-20670281D01*
X8718957Y-20622662D01*
X8709433Y-20603614D01*
X8699910Y-20594090D01*
X8680862Y-20584567D01*
X8642767Y-20584567D01*
X8623719Y-20594090D01*
X8614195Y-20603614D01*
X8604671Y-20622662D01*
X8957052Y-20708376D02*
X8957052Y-20508376D01*
X9042767Y-20708376D02*
X9042767Y-20603614D01*
X9033243Y-20584567D01*
X9014195Y-20575043D01*
X8985624Y-20575043D01*
X8966576Y-20584567D01*
X8957052Y-20594090D01*
X9166576Y-20708376D02*
X9147529Y-20698852D01*
X9138005Y-20689329D01*
X9128481Y-20670281D01*
X9128481Y-20613138D01*
X9138005Y-20594090D01*
X9147529Y-20584567D01*
X9166576Y-20575043D01*
X9195148Y-20575043D01*
X9214195Y-20584567D01*
X9223719Y-20594090D01*
X9233243Y-20613138D01*
X9233243Y-20670281D01*
X9223719Y-20689329D01*
X9214195Y-20698852D01*
X9195148Y-20708376D01*
X9166576Y-20708376D01*
X9347529Y-20708376D02*
X9328481Y-20698852D01*
X9318957Y-20679805D01*
X9318957Y-20508376D01*
X9499910Y-20698852D02*
X9480862Y-20708376D01*
X9442767Y-20708376D01*
X9423719Y-20698852D01*
X9414195Y-20679805D01*
X9414195Y-20603614D01*
X9423719Y-20584567D01*
X9442767Y-20575043D01*
X9480862Y-20575043D01*
X9499910Y-20584567D01*
X9509433Y-20603614D01*
X9509433Y-20622662D01*
X9414195Y-20641710D01*
X9585624Y-20698852D02*
X9604671Y-20708376D01*
X9642767Y-20708376D01*
X9661814Y-20698852D01*
X9671338Y-20679805D01*
X9671338Y-20670281D01*
X9661814Y-20651233D01*
X9642767Y-20641710D01*
X9614195Y-20641710D01*
X9595148Y-20632186D01*
X9585624Y-20613138D01*
X9585624Y-20603614D01*
X9595148Y-20584567D01*
X9614195Y-20575043D01*
X9642767Y-20575043D01*
X9661814Y-20584567D01*
X9738005Y-20784567D02*
X9747529Y-20775043D01*
X9766576Y-20746471D01*
X9776100Y-20727424D01*
X9785624Y-20698852D01*
X9795148Y-20651233D01*
X9795148Y-20613138D01*
X9785624Y-20565519D01*
X9776100Y-20536948D01*
X9766576Y-20517900D01*
X9747529Y-20489329D01*
X9738005Y-20479805D01*
M02*
