M48
; DRILL file {KiCad (6.0.10)} date Fri Feb 24 13:00:49 2023
; FORMAT={-:-/ absolute / metric / decimal}
; #@! TF.CreationDate,2023-02-24T13:00:49+01:00
; #@! TF.GenerationSoftware,Kicad,Pcbnew,(6.0.10)
; #@! TF.FileFunction,NonPlated,1,2,NPTH
FMAT,2
METRIC
; #@! TA.AperFunction,NonPlated,NPTH,ComponentDrill
T1C1.700
; #@! TA.AperFunction,NonPlated,NPTH,ComponentDrill
T2C4.000
%
G90
G05
T1
X63.066Y-119.214
X65.591Y-159.214
X66.288Y-139.214
X68.066Y-99.214
X73.226Y-119.214
X75.751Y-159.214
X76.448Y-139.214
X78.226Y-99.214
X83.066Y-119.214
X85.591Y-179.214
X86.066Y-139.214
X87.92Y-99.214
X93.226Y-119.214
X95.066Y-159.214
X95.751Y-179.214
X96.226Y-139.214
X98.08Y-99.214
X103.066Y-119.214
X105.226Y-159.214
X106.066Y-139.214
X107.92Y-99.214
X113.226Y-119.214
X115.066Y-159.214
X116.226Y-139.214
X118.08Y-99.214
X123.066Y-119.214
X125.226Y-159.214
X126.066Y-139.214
X127.92Y-99.214
X133.226Y-119.214
X135.066Y-159.214
X136.226Y-139.214
X138.08Y-99.214
X143.066Y-119.214
X145.226Y-159.214
X146.066Y-139.214
X148.066Y-99.214
X153.226Y-119.214
X155.066Y-159.214
X156.226Y-139.214
X158.226Y-99.214
X163.066Y-119.214
X165.066Y-179.214
X165.226Y-159.214
X166.066Y-139.214
X168.066Y-99.214
X173.226Y-119.214
X175.066Y-159.214
X175.226Y-179.214
X176.226Y-139.214
X178.226Y-99.214
X183.066Y-119.214
X185.226Y-159.214
X186.066Y-139.214
X188.066Y-99.214
X193.226Y-119.214
X195.066Y-159.214
X196.226Y-139.214
X198.226Y-99.214
X203.066Y-119.214
X205.226Y-159.214
X206.066Y-139.214
X208.066Y-99.214
X213.226Y-119.214
X215.066Y-159.214
X216.226Y-139.214
X218.226Y-99.214
X223.066Y-119.214
X225.226Y-159.214
X226.066Y-139.214
X228.066Y-99.214
X233.226Y-119.214
X235.066Y-159.214
X235.066Y-179.214
X236.226Y-139.214
X238.226Y-99.214
X243.066Y-119.214
X245.226Y-159.214
X245.226Y-179.214
X246.066Y-139.214
X248.066Y-99.214
X253.226Y-119.214
X255.066Y-159.214
X255.066Y-179.214
X256.226Y-139.214
X258.226Y-99.214
X263.066Y-119.214
X265.226Y-159.214
X265.226Y-179.214
X266.066Y-139.214
X268.066Y-99.214
X273.226Y-119.214
X275.066Y-159.214
X275.066Y-179.214
X276.226Y-139.214
X278.226Y-99.214
X283.066Y-119.214
X285.226Y-159.214
X285.226Y-179.214
X286.066Y-139.214
X288.066Y-99.214
X293.226Y-119.214
X295.066Y-179.214
X296.226Y-139.214
X298.226Y-99.214
X303.066Y-119.214
X304.541Y-159.214
X305.226Y-179.214
X308.066Y-99.214
X313.226Y-119.214
X314.701Y-159.214
X315.066Y-179.294
X315.541Y-139.214
X318.226Y-99.214
X325.226Y-179.294
X325.701Y-139.214
T2
X68.146Y-119.214
X70.671Y-159.214
X71.368Y-139.214
X73.146Y-99.214
X88.146Y-119.214
X90.671Y-179.214
X91.146Y-139.214
X93.0Y-99.214
X100.146Y-159.214
X108.146Y-119.214
X111.146Y-139.214
X113.0Y-99.214
X120.146Y-159.214
X128.146Y-119.214
X131.146Y-139.214
X133.0Y-99.214
X140.146Y-159.214
X148.146Y-119.214
X151.146Y-139.214
X153.146Y-99.214
X160.146Y-159.214
X168.146Y-119.214
X170.146Y-179.214
X171.146Y-139.214
X173.146Y-99.214
X180.146Y-159.214
X188.146Y-119.214
X191.146Y-139.214
X193.146Y-99.214
X200.146Y-159.214
X208.146Y-119.214
X211.146Y-139.214
X213.146Y-99.214
X220.146Y-159.214
X228.146Y-119.214
X231.146Y-139.214
X233.146Y-99.214
X240.146Y-159.214
X240.146Y-179.214
X248.146Y-119.214
X251.146Y-139.214
X253.146Y-99.214
X260.146Y-159.214
X260.146Y-179.214
X268.146Y-119.214
X271.146Y-139.214
X273.146Y-99.214
X280.146Y-159.214
X280.146Y-179.214
X288.146Y-119.214
X291.146Y-139.214
X293.146Y-99.214
X300.146Y-179.214
X308.146Y-119.214
X309.621Y-159.214
X313.146Y-99.214
X320.146Y-179.294
X320.621Y-139.214
T0
M30
