G04 #@! TF.GenerationSoftware,KiCad,Pcbnew,(6.0.10)*
G04 #@! TF.CreationDate,2023-02-27T08:54:06+01:00*
G04 #@! TF.ProjectId,CherryZXKeyboard,43686572-7279-45a5-984b-6579626f6172,rev?*
G04 #@! TF.SameCoordinates,Original*
G04 #@! TF.FileFunction,Soldermask,Bot*
G04 #@! TF.FilePolarity,Negative*
%FSLAX46Y46*%
G04 Gerber Fmt 4.6, Leading zero omitted, Abs format (unit mm)*
G04 Created by KiCad (PCBNEW (6.0.10)) date 2023-02-27 08:54:06*
%MOMM*%
%LPD*%
G01*
G04 APERTURE LIST*
%ADD10C,1.700000*%
%ADD11C,4.000000*%
%ADD12C,2.200000*%
%ADD13R,1.600000X1.600000*%
%ADD14C,1.600000*%
%ADD15R,1.700000X1.700000*%
%ADD16O,1.700000X1.700000*%
%ADD17O,1.600000X1.600000*%
%ADD18R,1.600000X2.400000*%
%ADD19O,1.600000X2.400000*%
G04 APERTURE END LIST*
D10*
X66226000Y-159214000D03*
D11*
X61146000Y-159214000D03*
D10*
X56066000Y-159214000D03*
D12*
X63686000Y-154134000D03*
X57336000Y-156674000D03*
D10*
X86226000Y-179214000D03*
D11*
X81146000Y-179214000D03*
D10*
X76066000Y-179214000D03*
D12*
X83686000Y-174134000D03*
X77336000Y-176674000D03*
D10*
X324226000Y-159214000D03*
D11*
X319146000Y-159214000D03*
D10*
X314066000Y-159214000D03*
D12*
X321686000Y-154134000D03*
X315336000Y-156674000D03*
D11*
X330146000Y-139214000D03*
D10*
X325066000Y-139214000D03*
X335226000Y-139214000D03*
D12*
X332686000Y-134134000D03*
X326336000Y-136674000D03*
D13*
X159078000Y-79548000D03*
D14*
X156578000Y-79548000D03*
D15*
X266948000Y-76354000D03*
D16*
X269488000Y-76354000D03*
X272028000Y-76354000D03*
X274568000Y-76354000D03*
X277108000Y-76354000D03*
X279648000Y-76354000D03*
X282188000Y-76354000D03*
X284728000Y-76354000D03*
D13*
X62732000Y-75338000D03*
D17*
X65272000Y-75338000D03*
X67812000Y-75338000D03*
X70352000Y-75338000D03*
X72892000Y-75338000D03*
X75432000Y-75338000D03*
D13*
X311652000Y-76354000D03*
D17*
X314192000Y-76354000D03*
X316732000Y-76354000D03*
X319272000Y-76354000D03*
X321812000Y-76354000D03*
X324352000Y-76354000D03*
D13*
X99586000Y-76134000D03*
D17*
X102126000Y-76134000D03*
X104666000Y-76134000D03*
X107206000Y-76134000D03*
X109746000Y-76134000D03*
X112286000Y-76134000D03*
D10*
X107920000Y-99214000D03*
D11*
X113000000Y-99214000D03*
D10*
X118080000Y-99214000D03*
D12*
X115540000Y-94134000D03*
X109190000Y-96674000D03*
D11*
X108146000Y-119214000D03*
D10*
X113226000Y-119214000D03*
X103066000Y-119214000D03*
D12*
X110686000Y-114134000D03*
X104336000Y-116674000D03*
X76336000Y-156674000D03*
X82686000Y-154134000D03*
D10*
X75066000Y-159214000D03*
D11*
X80146000Y-159214000D03*
D10*
X85226000Y-159214000D03*
D11*
X133000000Y-99214000D03*
D10*
X138080000Y-99214000D03*
X127920000Y-99214000D03*
D12*
X135540000Y-94134000D03*
X129190000Y-96674000D03*
D10*
X136226000Y-139214000D03*
X126066000Y-139214000D03*
D11*
X131146000Y-139214000D03*
D12*
X133686000Y-134134000D03*
X127336000Y-136674000D03*
D10*
X125226000Y-159214000D03*
X115066000Y-159214000D03*
D11*
X120146000Y-159214000D03*
D12*
X122686000Y-154134000D03*
X116336000Y-156674000D03*
D11*
X153146000Y-99214000D03*
D10*
X158226000Y-99214000D03*
X148066000Y-99214000D03*
D12*
X155686000Y-94134000D03*
X149336000Y-96674000D03*
D11*
X151146000Y-139214000D03*
D10*
X146066000Y-139214000D03*
X156226000Y-139214000D03*
D12*
X153686000Y-134134000D03*
X147336000Y-136674000D03*
D11*
X140146000Y-159214000D03*
D10*
X145226000Y-159214000D03*
X135066000Y-159214000D03*
D12*
X142686000Y-154134000D03*
X136336000Y-156674000D03*
D10*
X168066000Y-99214000D03*
D11*
X173146000Y-99214000D03*
D10*
X178226000Y-99214000D03*
D12*
X175686000Y-94134000D03*
X169336000Y-96674000D03*
D10*
X173226000Y-119214000D03*
D11*
X168146000Y-119214000D03*
D10*
X163066000Y-119214000D03*
D12*
X170686000Y-114134000D03*
X164336000Y-116674000D03*
D10*
X166066000Y-139214000D03*
D11*
X171146000Y-139214000D03*
D10*
X176226000Y-139214000D03*
D12*
X173686000Y-134134000D03*
X167336000Y-136674000D03*
D10*
X165226000Y-159214000D03*
D11*
X160146000Y-159214000D03*
D10*
X155066000Y-159214000D03*
D12*
X162686000Y-154134000D03*
X156336000Y-156674000D03*
D11*
X193146000Y-99214000D03*
D10*
X198226000Y-99214000D03*
X188066000Y-99214000D03*
D12*
X195686000Y-94134000D03*
X189336000Y-96674000D03*
D10*
X193226000Y-119214000D03*
X183066000Y-119214000D03*
D11*
X188146000Y-119214000D03*
D12*
X190686000Y-114134000D03*
X184336000Y-116674000D03*
D11*
X180146000Y-159214000D03*
D10*
X175066000Y-159214000D03*
X185226000Y-159214000D03*
D12*
X182686000Y-154134000D03*
X176336000Y-156674000D03*
D10*
X218226000Y-99214000D03*
D11*
X213146000Y-99214000D03*
D10*
X208066000Y-99214000D03*
D12*
X215686000Y-94134000D03*
X209336000Y-96674000D03*
D10*
X213226000Y-119214000D03*
X203066000Y-119214000D03*
D11*
X208146000Y-119214000D03*
D12*
X210686000Y-114134000D03*
X204336000Y-116674000D03*
D10*
X206066000Y-139214000D03*
D11*
X211146000Y-139214000D03*
D10*
X216226000Y-139214000D03*
D12*
X213686000Y-134134000D03*
X207336000Y-136674000D03*
D10*
X195066000Y-159214000D03*
X205226000Y-159214000D03*
D11*
X200146000Y-159214000D03*
D12*
X202686000Y-154134000D03*
X196336000Y-156674000D03*
D11*
X233146000Y-99214000D03*
D10*
X228066000Y-99214000D03*
X238226000Y-99214000D03*
D12*
X235686000Y-94134000D03*
X229336000Y-96674000D03*
D10*
X233226000Y-119214000D03*
D11*
X228146000Y-119214000D03*
D10*
X223066000Y-119214000D03*
D12*
X230686000Y-114134000D03*
X224336000Y-116674000D03*
D11*
X231146000Y-139214000D03*
D10*
X236226000Y-139214000D03*
X226066000Y-139214000D03*
D12*
X233686000Y-134134000D03*
X227336000Y-136674000D03*
D11*
X220146000Y-159214000D03*
D10*
X215066000Y-159214000D03*
X225226000Y-159214000D03*
D12*
X222686000Y-154134000D03*
X216336000Y-156674000D03*
D10*
X258226000Y-99214000D03*
D11*
X253146000Y-99214000D03*
D10*
X248066000Y-99214000D03*
D12*
X255686000Y-94134000D03*
X249336000Y-96674000D03*
D11*
X248152000Y-119280000D03*
D10*
X253232000Y-119280000D03*
X243072000Y-119280000D03*
D12*
X250692000Y-114200000D03*
X244342000Y-116740000D03*
D11*
X251146000Y-139214000D03*
D10*
X246066000Y-139214000D03*
X256226000Y-139214000D03*
D12*
X253686000Y-134134000D03*
X247336000Y-136674000D03*
D10*
X245226000Y-159214000D03*
D11*
X240146000Y-159214000D03*
D10*
X235066000Y-159214000D03*
D12*
X242686000Y-154134000D03*
X236336000Y-156674000D03*
D11*
X268218000Y-119280000D03*
D10*
X273298000Y-119280000D03*
X263138000Y-119280000D03*
D12*
X270758000Y-114200000D03*
X264408000Y-116740000D03*
D10*
X266066000Y-139214000D03*
X276226000Y-139214000D03*
D11*
X271146000Y-139214000D03*
D12*
X273686000Y-134134000D03*
X267336000Y-136674000D03*
D10*
X325226000Y-179294000D03*
D11*
X320146000Y-179294000D03*
D10*
X315066000Y-179294000D03*
D12*
X322686000Y-174214000D03*
X316336000Y-176754000D03*
D10*
X298226000Y-99214000D03*
X288066000Y-99214000D03*
D11*
X293146000Y-99214000D03*
D12*
X295686000Y-94134000D03*
X289336000Y-96674000D03*
D11*
X288146000Y-119214000D03*
D10*
X283066000Y-119214000D03*
X293226000Y-119214000D03*
D12*
X290686000Y-114134000D03*
X284336000Y-116674000D03*
D10*
X165066000Y-179214000D03*
D11*
X170146000Y-179214000D03*
D10*
X175226000Y-179214000D03*
D12*
X172686000Y-174134000D03*
X166336000Y-176674000D03*
D11*
X300146000Y-159214000D03*
D10*
X305226000Y-159214000D03*
X295066000Y-159214000D03*
D12*
X302686000Y-154134000D03*
X296336000Y-156674000D03*
D11*
X291146000Y-139214000D03*
D10*
X296226000Y-139214000D03*
X286066000Y-139214000D03*
D12*
X293686000Y-134134000D03*
X287336000Y-136674000D03*
D10*
X313226000Y-119214000D03*
X303066000Y-119214000D03*
D11*
X308146000Y-119214000D03*
D12*
X310686000Y-114134000D03*
X304336000Y-116674000D03*
D10*
X265226000Y-159214000D03*
X255066000Y-159214000D03*
D11*
X260146000Y-159214000D03*
D12*
X262686000Y-154134000D03*
X256336000Y-156674000D03*
D10*
X105226000Y-159214000D03*
D11*
X100146000Y-159214000D03*
D10*
X95066000Y-159214000D03*
D12*
X102686000Y-154134000D03*
X96336000Y-156674000D03*
D10*
X245226000Y-179214000D03*
X235066000Y-179214000D03*
D11*
X240146000Y-179214000D03*
D12*
X242686000Y-174134000D03*
X236336000Y-176674000D03*
D10*
X265226000Y-179214000D03*
D11*
X260146000Y-179214000D03*
D10*
X255066000Y-179214000D03*
D12*
X262686000Y-174134000D03*
X256336000Y-176674000D03*
D10*
X83066000Y-119214000D03*
D11*
X88146000Y-119214000D03*
D10*
X93226000Y-119214000D03*
D12*
X90686000Y-114134000D03*
X84336000Y-116674000D03*
D11*
X68146000Y-119214000D03*
D10*
X73226000Y-119214000D03*
X63066000Y-119214000D03*
D12*
X70686000Y-114134000D03*
X64336000Y-116674000D03*
D10*
X66288000Y-139214000D03*
X76448000Y-139214000D03*
D11*
X71368000Y-139214000D03*
D12*
X73908000Y-134134000D03*
X67558000Y-136674000D03*
D10*
X98080000Y-99214000D03*
D11*
X93000000Y-99214000D03*
D10*
X87920000Y-99214000D03*
D12*
X95540000Y-94134000D03*
X89190000Y-96674000D03*
D11*
X280146000Y-179214000D03*
D10*
X275066000Y-179214000D03*
X285226000Y-179214000D03*
D12*
X282686000Y-174134000D03*
X276336000Y-176674000D03*
D11*
X280146000Y-159214000D03*
D10*
X275066000Y-159214000D03*
X285226000Y-159214000D03*
D12*
X282686000Y-154134000D03*
X276336000Y-156674000D03*
D10*
X295066000Y-179214000D03*
D11*
X300146000Y-179214000D03*
D10*
X305226000Y-179214000D03*
D12*
X302686000Y-174134000D03*
X296336000Y-176674000D03*
D11*
X91146000Y-139214000D03*
D10*
X96226000Y-139214000D03*
X86066000Y-139214000D03*
D12*
X93686000Y-134134000D03*
X87336000Y-136674000D03*
X309336000Y-96674000D03*
X315686000Y-94134000D03*
D11*
X313146000Y-99214000D03*
D10*
X308066000Y-99214000D03*
X318226000Y-99214000D03*
D18*
X222503000Y-76339000D03*
D19*
X219963000Y-76339000D03*
X217423000Y-76339000D03*
X214883000Y-76339000D03*
X212343000Y-76339000D03*
X209803000Y-76339000D03*
X207263000Y-76339000D03*
X207263000Y-83959000D03*
X209803000Y-83959000D03*
X212343000Y-83959000D03*
X214883000Y-83959000D03*
X217423000Y-83959000D03*
X219963000Y-83959000D03*
X222503000Y-83959000D03*
D18*
X133090000Y-76354000D03*
D19*
X130550000Y-76354000D03*
X128010000Y-76354000D03*
X125470000Y-76354000D03*
X122930000Y-76354000D03*
X120390000Y-76354000D03*
X117850000Y-76354000D03*
X117850000Y-83974000D03*
X120390000Y-83974000D03*
X122930000Y-83974000D03*
X125470000Y-83974000D03*
X128010000Y-83974000D03*
X130550000Y-83974000D03*
X133090000Y-83974000D03*
D18*
X306831000Y-76339000D03*
D19*
X304291000Y-76339000D03*
X301751000Y-76339000D03*
X299211000Y-76339000D03*
X296671000Y-76339000D03*
X294131000Y-76339000D03*
X291591000Y-76339000D03*
X291591000Y-83959000D03*
X294131000Y-83959000D03*
X296671000Y-83959000D03*
X299211000Y-83959000D03*
X301751000Y-83959000D03*
X304291000Y-83959000D03*
X306831000Y-83959000D03*
D18*
X186181000Y-76339000D03*
D19*
X183641000Y-76339000D03*
X181101000Y-76339000D03*
X178561000Y-76339000D03*
X176021000Y-76339000D03*
X173481000Y-76339000D03*
X170941000Y-76339000D03*
X170941000Y-83959000D03*
X173481000Y-83959000D03*
X176021000Y-83959000D03*
X178561000Y-83959000D03*
X181101000Y-83959000D03*
X183641000Y-83959000D03*
X186181000Y-83959000D03*
D15*
X140456000Y-76354000D03*
D16*
X142996000Y-76354000D03*
X145536000Y-76354000D03*
X148076000Y-76354000D03*
X150616000Y-76354000D03*
D10*
X186066000Y-139214000D03*
X196226000Y-139214000D03*
D11*
X191146000Y-139214000D03*
D12*
X193686000Y-134134000D03*
X187336000Y-136674000D03*
D10*
X268066000Y-99214000D03*
D11*
X273146000Y-99214000D03*
D10*
X278226000Y-99214000D03*
D12*
X275686000Y-94134000D03*
X269336000Y-96674000D03*
D10*
X116226000Y-139214000D03*
X106066000Y-139214000D03*
D11*
X111146000Y-139214000D03*
D12*
X113686000Y-134134000D03*
X107336000Y-136674000D03*
D11*
X73146000Y-99214000D03*
D10*
X78226000Y-99214000D03*
X68066000Y-99214000D03*
D12*
X75686000Y-94134000D03*
X69336000Y-96674000D03*
D10*
X306066000Y-139214000D03*
D11*
X311146000Y-139214000D03*
D10*
X316226000Y-139214000D03*
D12*
X313686000Y-134134000D03*
X307336000Y-136674000D03*
D13*
X236468000Y-76354000D03*
D17*
X239008000Y-76354000D03*
X241548000Y-76354000D03*
X244088000Y-76354000D03*
X246628000Y-76354000D03*
X249168000Y-76354000D03*
D11*
X100146000Y-179214000D03*
D10*
X95066000Y-179214000D03*
X105226000Y-179214000D03*
D12*
X102686000Y-174134000D03*
X96336000Y-176674000D03*
D10*
X133226000Y-119214000D03*
X123066000Y-119214000D03*
D11*
X128146000Y-119214000D03*
D12*
X130686000Y-114134000D03*
X124336000Y-116674000D03*
D10*
X143066000Y-119214000D03*
D11*
X148146000Y-119214000D03*
D10*
X153226000Y-119214000D03*
D12*
X150686000Y-114134000D03*
X144336000Y-116674000D03*
D18*
X95311000Y-75309000D03*
D19*
X92771000Y-75309000D03*
X90231000Y-75309000D03*
X87691000Y-75309000D03*
X85151000Y-75309000D03*
X82611000Y-75309000D03*
X80071000Y-75309000D03*
X80071000Y-82929000D03*
X82611000Y-82929000D03*
X85151000Y-82929000D03*
X87691000Y-82929000D03*
X90231000Y-82929000D03*
X92771000Y-82929000D03*
X95311000Y-82929000D03*
D13*
X75840000Y-86226000D03*
D17*
X75840000Y-78606000D03*
D13*
X269488000Y-79402000D03*
D17*
X269488000Y-87022000D03*
D13*
X73300000Y-86226000D03*
D17*
X73300000Y-78606000D03*
D13*
X266948000Y-79402000D03*
D17*
X266948000Y-87022000D03*
D13*
X112262000Y-78894000D03*
D17*
X112262000Y-86514000D03*
D13*
X92958000Y-86768000D03*
D17*
X85338000Y-86768000D03*
D13*
X102102000Y-86514000D03*
D17*
X102102000Y-78894000D03*
D13*
X279648000Y-79402000D03*
D17*
X279648000Y-87022000D03*
D13*
X277108000Y-79402000D03*
D17*
X277108000Y-87022000D03*
D13*
X140456000Y-87022000D03*
D17*
X140456000Y-79402000D03*
D13*
X65426000Y-85972000D03*
D17*
X65426000Y-78352000D03*
D13*
X321812000Y-86768000D03*
D17*
X321812000Y-79148000D03*
D13*
X120390000Y-73052000D03*
D17*
X112770000Y-73052000D03*
D13*
X246628000Y-86768000D03*
D17*
X246628000Y-79148000D03*
D13*
X272028000Y-79402000D03*
D17*
X272028000Y-87022000D03*
D13*
X274568000Y-79402000D03*
D17*
X274568000Y-87022000D03*
D13*
X106674000Y-73052000D03*
D17*
X99054000Y-73052000D03*
D13*
X67966000Y-85972000D03*
D17*
X67966000Y-78352000D03*
D13*
X319272000Y-86768000D03*
D17*
X319272000Y-79148000D03*
D13*
X244088000Y-86768000D03*
D17*
X244088000Y-79148000D03*
D13*
X104686000Y-86514000D03*
D17*
X104686000Y-78894000D03*
D13*
X148076000Y-87022000D03*
D17*
X148076000Y-79402000D03*
D13*
X249168000Y-86768000D03*
D17*
X249168000Y-79148000D03*
D13*
X284728000Y-79402000D03*
D17*
X284728000Y-87022000D03*
D13*
X150616000Y-87022000D03*
D17*
X150616000Y-79402000D03*
D13*
X239008000Y-86768000D03*
D17*
X239008000Y-79148000D03*
D13*
X142996000Y-87022000D03*
D17*
X142996000Y-79402000D03*
D13*
X241548000Y-86768000D03*
D17*
X241548000Y-79148000D03*
D13*
X145536000Y-87022000D03*
D17*
X145536000Y-79402000D03*
D13*
X282188000Y-79402000D03*
D17*
X282188000Y-87022000D03*
M02*
