M48
; DRILL file {KiCad (6.0.10)} date Mon Feb 27 08:53:42 2023
; FORMAT={-:-/ absolute / metric / decimal}
; #@! TF.CreationDate,2023-02-27T08:53:42+01:00
; #@! TF.GenerationSoftware,Kicad,Pcbnew,(6.0.10)
; #@! TF.FileFunction,Plated,1,2,PTH
FMAT,2
METRIC
; #@! TA.AperFunction,Plated,PTH,ViaDrill
T1C0.400
; #@! TA.AperFunction,Plated,PTH,ComponentDrill
T2C0.800
; #@! TA.AperFunction,Plated,PTH,ComponentDrill
T3C1.000
; #@! TA.AperFunction,Plated,PTH,ComponentDrill
T4C1.500
; #@! TA.AperFunction,Plated,PTH,ViaDrill
T5C3.600
%
G90
G05
T1
X61.31Y-151.123
X79.194Y-71.886
X81.608Y-89.803
X82.798Y-110.898
X93.448Y-73.477
X96.656Y-85.379
X98.657Y-78.697
X98.997Y-95.425
X100.07Y-88.292
X100.832Y-93.372
X106.024Y-83.051
X107.995Y-95.425
X108.541Y-86.227
X122.838Y-88.422
X130.222Y-80.304
X130.681Y-154.134
X138.817Y-91.787
X148.691Y-103.075
X182.641Y-89.444
X188.335Y-73.179
X206.614Y-106.395
X217.27Y-79.435
X227.697Y-94.134
X232.906Y-79.359
X232.937Y-88.902
X234.442Y-81.548
X235.452Y-101.814
X235.552Y-131.95
X236.8Y-131.195
X239.767Y-82.959
X241.802Y-104.802
X250.944Y-74.334
X253.116Y-86.516
X256.026Y-151.284
X258.312Y-76.1
X258.82Y-71.528
X259.008Y-88.964
X260.09Y-70.512
X260.09Y-76.1
X262.124Y-81.848
X277.774Y-148.917
X278.171Y-152.433
X283.204Y-163.984
X283.776Y-89.961
X285.649Y-110.266
X288.03Y-185.828
X300.349Y-89.435
X306.3Y-87.918
X307.89Y-74.526
X314.16Y-78.151
T2
X62.732Y-75.338
X65.272Y-75.338
X65.426Y-78.352
X65.426Y-85.972
X67.812Y-75.338
X67.966Y-78.352
X67.966Y-85.972
X70.352Y-75.338
X72.892Y-75.338
X73.3Y-78.606
X73.3Y-86.226
X75.432Y-75.338
X75.84Y-78.606
X75.84Y-86.226
X80.071Y-75.309
X80.071Y-82.929
X82.611Y-75.309
X82.611Y-82.929
X85.151Y-75.309
X85.151Y-82.929
X85.338Y-86.768
X87.691Y-75.309
X87.691Y-82.929
X90.231Y-75.309
X90.231Y-82.929
X92.771Y-75.309
X92.771Y-82.929
X92.958Y-86.768
X95.311Y-75.309
X95.311Y-82.929
X99.054Y-73.052
X99.586Y-76.134
X102.102Y-78.894
X102.102Y-86.514
X102.126Y-76.134
X104.666Y-76.134
X104.686Y-78.894
X104.686Y-86.514
X106.674Y-73.052
X107.206Y-76.134
X109.746Y-76.134
X112.262Y-78.894
X112.262Y-86.514
X112.286Y-76.134
X112.77Y-73.052
X117.85Y-76.354
X117.85Y-83.974
X120.39Y-73.052
X120.39Y-76.354
X120.39Y-83.974
X122.93Y-76.354
X122.93Y-83.974
X125.47Y-76.354
X125.47Y-83.974
X128.01Y-76.354
X128.01Y-83.974
X130.55Y-76.354
X130.55Y-83.974
X133.09Y-76.354
X133.09Y-83.974
X140.456Y-79.402
X140.456Y-87.022
X142.996Y-79.402
X142.996Y-87.022
X145.536Y-79.402
X145.536Y-87.022
X148.076Y-79.402
X148.076Y-87.022
X150.616Y-79.402
X150.616Y-87.022
X156.578Y-79.548
X159.078Y-79.548
X170.941Y-76.339
X170.941Y-83.959
X173.481Y-76.339
X173.481Y-83.959
X176.021Y-76.339
X176.021Y-83.959
X178.561Y-76.339
X178.561Y-83.959
X181.101Y-76.339
X181.101Y-83.959
X183.641Y-76.339
X183.641Y-83.959
X186.181Y-76.339
X186.181Y-83.959
X207.263Y-76.339
X207.263Y-83.959
X209.803Y-76.339
X209.803Y-83.959
X212.343Y-76.339
X212.343Y-83.959
X214.883Y-76.339
X214.883Y-83.959
X217.423Y-76.339
X217.423Y-83.959
X219.963Y-76.339
X219.963Y-83.959
X222.503Y-76.339
X222.503Y-83.959
X236.468Y-76.354
X239.008Y-76.354
X239.008Y-79.148
X239.008Y-86.768
X241.548Y-76.354
X241.548Y-79.148
X241.548Y-86.768
X244.088Y-76.354
X244.088Y-79.148
X244.088Y-86.768
X246.628Y-76.354
X246.628Y-79.148
X246.628Y-86.768
X249.168Y-76.354
X249.168Y-79.148
X249.168Y-86.768
X266.948Y-79.402
X266.948Y-87.022
X269.488Y-79.402
X269.488Y-87.022
X272.028Y-79.402
X272.028Y-87.022
X274.568Y-79.402
X274.568Y-87.022
X277.108Y-79.402
X277.108Y-87.022
X279.648Y-79.402
X279.648Y-87.022
X282.188Y-79.402
X282.188Y-87.022
X284.728Y-79.402
X284.728Y-87.022
X291.591Y-76.339
X291.591Y-83.959
X294.131Y-76.339
X294.131Y-83.959
X296.671Y-76.339
X296.671Y-83.959
X299.211Y-76.339
X299.211Y-83.959
X301.751Y-76.339
X301.751Y-83.959
X304.291Y-76.339
X304.291Y-83.959
X306.831Y-76.339
X306.831Y-83.959
X311.652Y-76.354
X314.192Y-76.354
X316.732Y-76.354
X319.272Y-76.354
X319.272Y-79.148
X319.272Y-86.768
X321.812Y-76.354
X321.812Y-79.148
X321.812Y-86.768
X324.352Y-76.354
T3
X140.456Y-76.354
X142.996Y-76.354
X145.536Y-76.354
X148.076Y-76.354
X150.616Y-76.354
X266.948Y-76.354
X269.488Y-76.354
X272.028Y-76.354
X274.568Y-76.354
X277.108Y-76.354
X279.648Y-76.354
X282.188Y-76.354
X284.728Y-76.354
T4
X57.336Y-156.674
X63.686Y-154.134
X64.336Y-116.674
X67.558Y-136.674
X69.336Y-96.674
X70.686Y-114.134
X73.908Y-134.134
X75.686Y-94.134
X76.336Y-156.674
X77.336Y-176.674
X82.686Y-154.134
X83.686Y-174.134
X84.336Y-116.674
X87.336Y-136.674
X89.19Y-96.674
X90.686Y-114.134
X93.686Y-134.134
X95.54Y-94.134
X96.336Y-156.674
X96.336Y-176.674
X102.686Y-154.134
X102.686Y-174.134
X104.336Y-116.674
X107.336Y-136.674
X109.19Y-96.674
X110.686Y-114.134
X113.686Y-134.134
X115.54Y-94.134
X116.336Y-156.674
X122.686Y-154.134
X124.336Y-116.674
X127.336Y-136.674
X129.19Y-96.674
X130.686Y-114.134
X133.686Y-134.134
X135.54Y-94.134
X136.336Y-156.674
X142.686Y-154.134
X144.336Y-116.674
X147.336Y-136.674
X149.336Y-96.674
X150.686Y-114.134
X153.686Y-134.134
X155.686Y-94.134
X156.336Y-156.674
X162.686Y-154.134
X164.336Y-116.674
X166.336Y-176.674
X167.336Y-136.674
X169.336Y-96.674
X170.686Y-114.134
X172.686Y-174.134
X173.686Y-134.134
X175.686Y-94.134
X176.336Y-156.674
X182.686Y-154.134
X184.336Y-116.674
X187.336Y-136.674
X189.336Y-96.674
X190.686Y-114.134
X193.686Y-134.134
X195.686Y-94.134
X196.336Y-156.674
X202.686Y-154.134
X204.336Y-116.674
X207.336Y-136.674
X209.336Y-96.674
X210.686Y-114.134
X213.686Y-134.134
X215.686Y-94.134
X216.336Y-156.674
X222.686Y-154.134
X224.336Y-116.674
X227.336Y-136.674
X229.336Y-96.674
X230.686Y-114.134
X233.686Y-134.134
X235.686Y-94.134
X236.336Y-156.674
X236.336Y-176.674
X242.686Y-154.134
X242.686Y-174.134
X244.342Y-116.74
X247.336Y-136.674
X249.336Y-96.674
X250.692Y-114.2
X253.686Y-134.134
X255.686Y-94.134
X256.336Y-156.674
X256.336Y-176.674
X262.686Y-154.134
X262.686Y-174.134
X264.408Y-116.74
X267.336Y-136.674
X269.336Y-96.674
X270.758Y-114.2
X273.686Y-134.134
X275.686Y-94.134
X276.336Y-156.674
X276.336Y-176.674
X282.686Y-154.134
X282.686Y-174.134
X284.336Y-116.674
X287.336Y-136.674
X289.336Y-96.674
X290.686Y-114.134
X293.686Y-134.134
X295.686Y-94.134
X296.336Y-156.674
X296.336Y-176.674
X302.686Y-154.134
X302.686Y-174.134
X304.336Y-116.674
X307.336Y-136.674
X309.336Y-96.674
X310.686Y-114.134
X313.686Y-134.134
X315.336Y-156.674
X315.686Y-94.134
X316.336Y-176.754
X321.686Y-154.134
X322.686Y-174.214
X326.336Y-136.674
X332.686Y-134.134
T5
X54.686Y-74.134
X54.686Y-184.134
X194.686Y-74.134
X194.686Y-184.134
X334.686Y-74.134
X334.686Y-184.134
T0
M30
