%TF.GenerationSoftware,KiCad,Pcbnew,(6.0.10)*%
%TF.CreationDate,2023-02-24T13:01:01+01:00*%
%TF.ProjectId,CherryZXKeyboard,43686572-7279-45a5-984b-6579626f6172,rev?*%
%TF.SameCoordinates,Original*%
%TF.FileFunction,Drillmap*%
%TF.FilePolarity,Positive*%
%FSLAX45Y45*%
G04 Gerber Fmt 4.5, Leading zero omitted, Abs format (unit mm)*
G04 Created by KiCad (PCBNEW (6.0.10)) date 2023-02-24 13:01:01*
%MOMM*%
%LPD*%
G01*
G04 APERTURE LIST*
%ADD10C,0.050000*%
%ADD11C,0.200000*%
%ADD12C,0.170000*%
%ADD13C,0.400000*%
G04 APERTURE END LIST*
D10*
X4968600Y-6913400D02*
X33968600Y-6913400D01*
X33968600Y-6913400D02*
X33968600Y-18913400D01*
X33968600Y-18913400D02*
X4968600Y-18913400D01*
X4968600Y-18913400D02*
X4968600Y-6913400D01*
D11*
D12*
X6221600Y-11836400D02*
X6391600Y-12006400D01*
X6391600Y-11836400D02*
X6221600Y-12006400D01*
X6474100Y-15836400D02*
X6644100Y-16006400D01*
X6644100Y-15836400D02*
X6474100Y-16006400D01*
X6543800Y-13836400D02*
X6713800Y-14006400D01*
X6713800Y-13836400D02*
X6543800Y-14006400D01*
X6721600Y-9836400D02*
X6891600Y-10006400D01*
X6891600Y-9836400D02*
X6721600Y-10006400D01*
X7237600Y-11836400D02*
X7407600Y-12006400D01*
X7407600Y-11836400D02*
X7237600Y-12006400D01*
X7490100Y-15836400D02*
X7660100Y-16006400D01*
X7660100Y-15836400D02*
X7490100Y-16006400D01*
X7559800Y-13836400D02*
X7729800Y-14006400D01*
X7729800Y-13836400D02*
X7559800Y-14006400D01*
X7737600Y-9836400D02*
X7907600Y-10006400D01*
X7907600Y-9836400D02*
X7737600Y-10006400D01*
X8221600Y-11836400D02*
X8391600Y-12006400D01*
X8391600Y-11836400D02*
X8221600Y-12006400D01*
X8474100Y-17836400D02*
X8644100Y-18006400D01*
X8644100Y-17836400D02*
X8474100Y-18006400D01*
X8521600Y-13836400D02*
X8691600Y-14006400D01*
X8691600Y-13836400D02*
X8521600Y-14006400D01*
X8707000Y-9836400D02*
X8877000Y-10006400D01*
X8877000Y-9836400D02*
X8707000Y-10006400D01*
X9237600Y-11836400D02*
X9407600Y-12006400D01*
X9407600Y-11836400D02*
X9237600Y-12006400D01*
X9421600Y-15836400D02*
X9591600Y-16006400D01*
X9591600Y-15836400D02*
X9421600Y-16006400D01*
X9490100Y-17836400D02*
X9660100Y-18006400D01*
X9660100Y-17836400D02*
X9490100Y-18006400D01*
X9537600Y-13836400D02*
X9707600Y-14006400D01*
X9707600Y-13836400D02*
X9537600Y-14006400D01*
X9723000Y-9836400D02*
X9893000Y-10006400D01*
X9893000Y-9836400D02*
X9723000Y-10006400D01*
X10221600Y-11836400D02*
X10391600Y-12006400D01*
X10391600Y-11836400D02*
X10221600Y-12006400D01*
X10437600Y-15836400D02*
X10607600Y-16006400D01*
X10607600Y-15836400D02*
X10437600Y-16006400D01*
X10521600Y-13836400D02*
X10691600Y-14006400D01*
X10691600Y-13836400D02*
X10521600Y-14006400D01*
X10707000Y-9836400D02*
X10877000Y-10006400D01*
X10877000Y-9836400D02*
X10707000Y-10006400D01*
X11237600Y-11836400D02*
X11407600Y-12006400D01*
X11407600Y-11836400D02*
X11237600Y-12006400D01*
X11421600Y-15836400D02*
X11591600Y-16006400D01*
X11591600Y-15836400D02*
X11421600Y-16006400D01*
X11537600Y-13836400D02*
X11707600Y-14006400D01*
X11707600Y-13836400D02*
X11537600Y-14006400D01*
X11723000Y-9836400D02*
X11893000Y-10006400D01*
X11893000Y-9836400D02*
X11723000Y-10006400D01*
X12221600Y-11836400D02*
X12391600Y-12006400D01*
X12391600Y-11836400D02*
X12221600Y-12006400D01*
X12437600Y-15836400D02*
X12607600Y-16006400D01*
X12607600Y-15836400D02*
X12437600Y-16006400D01*
X12521600Y-13836400D02*
X12691600Y-14006400D01*
X12691600Y-13836400D02*
X12521600Y-14006400D01*
X12707000Y-9836400D02*
X12877000Y-10006400D01*
X12877000Y-9836400D02*
X12707000Y-10006400D01*
X13237600Y-11836400D02*
X13407600Y-12006400D01*
X13407600Y-11836400D02*
X13237600Y-12006400D01*
X13421600Y-15836400D02*
X13591600Y-16006400D01*
X13591600Y-15836400D02*
X13421600Y-16006400D01*
X13537600Y-13836400D02*
X13707600Y-14006400D01*
X13707600Y-13836400D02*
X13537600Y-14006400D01*
X13723000Y-9836400D02*
X13893000Y-10006400D01*
X13893000Y-9836400D02*
X13723000Y-10006400D01*
X14221600Y-11836400D02*
X14391600Y-12006400D01*
X14391600Y-11836400D02*
X14221600Y-12006400D01*
X14437600Y-15836400D02*
X14607600Y-16006400D01*
X14607600Y-15836400D02*
X14437600Y-16006400D01*
X14521600Y-13836400D02*
X14691600Y-14006400D01*
X14691600Y-13836400D02*
X14521600Y-14006400D01*
X14721600Y-9836400D02*
X14891600Y-10006400D01*
X14891600Y-9836400D02*
X14721600Y-10006400D01*
X15237600Y-11836400D02*
X15407600Y-12006400D01*
X15407600Y-11836400D02*
X15237600Y-12006400D01*
X15421600Y-15836400D02*
X15591600Y-16006400D01*
X15591600Y-15836400D02*
X15421600Y-16006400D01*
X15537600Y-13836400D02*
X15707600Y-14006400D01*
X15707600Y-13836400D02*
X15537600Y-14006400D01*
X15737600Y-9836400D02*
X15907600Y-10006400D01*
X15907600Y-9836400D02*
X15737600Y-10006400D01*
X16221600Y-11836400D02*
X16391600Y-12006400D01*
X16391600Y-11836400D02*
X16221600Y-12006400D01*
X16421600Y-17836400D02*
X16591600Y-18006400D01*
X16591600Y-17836400D02*
X16421600Y-18006400D01*
X16437600Y-15836400D02*
X16607600Y-16006400D01*
X16607600Y-15836400D02*
X16437600Y-16006400D01*
X16521600Y-13836400D02*
X16691600Y-14006400D01*
X16691600Y-13836400D02*
X16521600Y-14006400D01*
X16721600Y-9836400D02*
X16891600Y-10006400D01*
X16891600Y-9836400D02*
X16721600Y-10006400D01*
X17237600Y-11836400D02*
X17407600Y-12006400D01*
X17407600Y-11836400D02*
X17237600Y-12006400D01*
X17421600Y-15836400D02*
X17591600Y-16006400D01*
X17591600Y-15836400D02*
X17421600Y-16006400D01*
X17437600Y-17836400D02*
X17607600Y-18006400D01*
X17607600Y-17836400D02*
X17437600Y-18006400D01*
X17537600Y-13836400D02*
X17707600Y-14006400D01*
X17707600Y-13836400D02*
X17537600Y-14006400D01*
X17737600Y-9836400D02*
X17907600Y-10006400D01*
X17907600Y-9836400D02*
X17737600Y-10006400D01*
X18221600Y-11836400D02*
X18391600Y-12006400D01*
X18391600Y-11836400D02*
X18221600Y-12006400D01*
X18437600Y-15836400D02*
X18607600Y-16006400D01*
X18607600Y-15836400D02*
X18437600Y-16006400D01*
X18521600Y-13836400D02*
X18691600Y-14006400D01*
X18691600Y-13836400D02*
X18521600Y-14006400D01*
X18721600Y-9836400D02*
X18891600Y-10006400D01*
X18891600Y-9836400D02*
X18721600Y-10006400D01*
X19237600Y-11836400D02*
X19407600Y-12006400D01*
X19407600Y-11836400D02*
X19237600Y-12006400D01*
X19421600Y-15836400D02*
X19591600Y-16006400D01*
X19591600Y-15836400D02*
X19421600Y-16006400D01*
X19537600Y-13836400D02*
X19707600Y-14006400D01*
X19707600Y-13836400D02*
X19537600Y-14006400D01*
X19737600Y-9836400D02*
X19907600Y-10006400D01*
X19907600Y-9836400D02*
X19737600Y-10006400D01*
X20221600Y-11836400D02*
X20391600Y-12006400D01*
X20391600Y-11836400D02*
X20221600Y-12006400D01*
X20437600Y-15836400D02*
X20607600Y-16006400D01*
X20607600Y-15836400D02*
X20437600Y-16006400D01*
X20521600Y-13836400D02*
X20691600Y-14006400D01*
X20691600Y-13836400D02*
X20521600Y-14006400D01*
X20721600Y-9836400D02*
X20891600Y-10006400D01*
X20891600Y-9836400D02*
X20721600Y-10006400D01*
X21237600Y-11836400D02*
X21407600Y-12006400D01*
X21407600Y-11836400D02*
X21237600Y-12006400D01*
X21421600Y-15836400D02*
X21591600Y-16006400D01*
X21591600Y-15836400D02*
X21421600Y-16006400D01*
X21537600Y-13836400D02*
X21707600Y-14006400D01*
X21707600Y-13836400D02*
X21537600Y-14006400D01*
X21737600Y-9836400D02*
X21907600Y-10006400D01*
X21907600Y-9836400D02*
X21737600Y-10006400D01*
X22221600Y-11836400D02*
X22391600Y-12006400D01*
X22391600Y-11836400D02*
X22221600Y-12006400D01*
X22437600Y-15836400D02*
X22607600Y-16006400D01*
X22607600Y-15836400D02*
X22437600Y-16006400D01*
X22521600Y-13836400D02*
X22691600Y-14006400D01*
X22691600Y-13836400D02*
X22521600Y-14006400D01*
X22721600Y-9836400D02*
X22891600Y-10006400D01*
X22891600Y-9836400D02*
X22721600Y-10006400D01*
X23237600Y-11836400D02*
X23407600Y-12006400D01*
X23407600Y-11836400D02*
X23237600Y-12006400D01*
X23421600Y-15836400D02*
X23591600Y-16006400D01*
X23591600Y-15836400D02*
X23421600Y-16006400D01*
X23421600Y-17836400D02*
X23591600Y-18006400D01*
X23591600Y-17836400D02*
X23421600Y-18006400D01*
X23537600Y-13836400D02*
X23707600Y-14006400D01*
X23707600Y-13836400D02*
X23537600Y-14006400D01*
X23737600Y-9836400D02*
X23907600Y-10006400D01*
X23907600Y-9836400D02*
X23737600Y-10006400D01*
X24221600Y-11836400D02*
X24391600Y-12006400D01*
X24391600Y-11836400D02*
X24221600Y-12006400D01*
X24437600Y-15836400D02*
X24607600Y-16006400D01*
X24607600Y-15836400D02*
X24437600Y-16006400D01*
X24437600Y-17836400D02*
X24607600Y-18006400D01*
X24607600Y-17836400D02*
X24437600Y-18006400D01*
X24521600Y-13836400D02*
X24691600Y-14006400D01*
X24691600Y-13836400D02*
X24521600Y-14006400D01*
X24721600Y-9836400D02*
X24891600Y-10006400D01*
X24891600Y-9836400D02*
X24721600Y-10006400D01*
X25237600Y-11836400D02*
X25407600Y-12006400D01*
X25407600Y-11836400D02*
X25237600Y-12006400D01*
X25421600Y-15836400D02*
X25591600Y-16006400D01*
X25591600Y-15836400D02*
X25421600Y-16006400D01*
X25421600Y-17836400D02*
X25591600Y-18006400D01*
X25591600Y-17836400D02*
X25421600Y-18006400D01*
X25537600Y-13836400D02*
X25707600Y-14006400D01*
X25707600Y-13836400D02*
X25537600Y-14006400D01*
X25737600Y-9836400D02*
X25907600Y-10006400D01*
X25907600Y-9836400D02*
X25737600Y-10006400D01*
X26221600Y-11836400D02*
X26391600Y-12006400D01*
X26391600Y-11836400D02*
X26221600Y-12006400D01*
X26437600Y-15836400D02*
X26607600Y-16006400D01*
X26607600Y-15836400D02*
X26437600Y-16006400D01*
X26437600Y-17836400D02*
X26607600Y-18006400D01*
X26607600Y-17836400D02*
X26437600Y-18006400D01*
X26521600Y-13836400D02*
X26691600Y-14006400D01*
X26691600Y-13836400D02*
X26521600Y-14006400D01*
X26721600Y-9836400D02*
X26891600Y-10006400D01*
X26891600Y-9836400D02*
X26721600Y-10006400D01*
X27237600Y-11836400D02*
X27407600Y-12006400D01*
X27407600Y-11836400D02*
X27237600Y-12006400D01*
X27421600Y-15836400D02*
X27591600Y-16006400D01*
X27591600Y-15836400D02*
X27421600Y-16006400D01*
X27421600Y-17836400D02*
X27591600Y-18006400D01*
X27591600Y-17836400D02*
X27421600Y-18006400D01*
X27537600Y-13836400D02*
X27707600Y-14006400D01*
X27707600Y-13836400D02*
X27537600Y-14006400D01*
X27737600Y-9836400D02*
X27907600Y-10006400D01*
X27907600Y-9836400D02*
X27737600Y-10006400D01*
X28221600Y-11836400D02*
X28391600Y-12006400D01*
X28391600Y-11836400D02*
X28221600Y-12006400D01*
X28437600Y-15836400D02*
X28607600Y-16006400D01*
X28607600Y-15836400D02*
X28437600Y-16006400D01*
X28437600Y-17836400D02*
X28607600Y-18006400D01*
X28607600Y-17836400D02*
X28437600Y-18006400D01*
X28521600Y-13836400D02*
X28691600Y-14006400D01*
X28691600Y-13836400D02*
X28521600Y-14006400D01*
X28721600Y-9836400D02*
X28891600Y-10006400D01*
X28891600Y-9836400D02*
X28721600Y-10006400D01*
X29237600Y-11836400D02*
X29407600Y-12006400D01*
X29407600Y-11836400D02*
X29237600Y-12006400D01*
X29421600Y-17836400D02*
X29591600Y-18006400D01*
X29591600Y-17836400D02*
X29421600Y-18006400D01*
X29537600Y-13836400D02*
X29707600Y-14006400D01*
X29707600Y-13836400D02*
X29537600Y-14006400D01*
X29737600Y-9836400D02*
X29907600Y-10006400D01*
X29907600Y-9836400D02*
X29737600Y-10006400D01*
X30221600Y-11836400D02*
X30391600Y-12006400D01*
X30391600Y-11836400D02*
X30221600Y-12006400D01*
X30369100Y-15836400D02*
X30539100Y-16006400D01*
X30539100Y-15836400D02*
X30369100Y-16006400D01*
X30437600Y-17836400D02*
X30607600Y-18006400D01*
X30607600Y-17836400D02*
X30437600Y-18006400D01*
X30721600Y-9836400D02*
X30891600Y-10006400D01*
X30891600Y-9836400D02*
X30721600Y-10006400D01*
X31237600Y-11836400D02*
X31407600Y-12006400D01*
X31407600Y-11836400D02*
X31237600Y-12006400D01*
X31385100Y-15836400D02*
X31555100Y-16006400D01*
X31555100Y-15836400D02*
X31385100Y-16006400D01*
X31421600Y-17844400D02*
X31591600Y-18014400D01*
X31591600Y-17844400D02*
X31421600Y-18014400D01*
X31469100Y-13836400D02*
X31639100Y-14006400D01*
X31639100Y-13836400D02*
X31469100Y-14006400D01*
X31737600Y-9836400D02*
X31907600Y-10006400D01*
X31907600Y-9836400D02*
X31737600Y-10006400D01*
X32437600Y-17844400D02*
X32607600Y-18014400D01*
X32607600Y-17844400D02*
X32437600Y-18014400D01*
X32485100Y-13836400D02*
X32655100Y-14006400D01*
X32655100Y-13836400D02*
X32485100Y-14006400D01*
D13*
X7014600Y-11921400D02*
G75*
G03*
X7014600Y-11921400I-200000J0D01*
G01*
X7267100Y-15921400D02*
G75*
G03*
X7267100Y-15921400I-200000J0D01*
G01*
X7336800Y-13921400D02*
G75*
G03*
X7336800Y-13921400I-200000J0D01*
G01*
X7514600Y-9921400D02*
G75*
G03*
X7514600Y-9921400I-200000J0D01*
G01*
X9014600Y-11921400D02*
G75*
G03*
X9014600Y-11921400I-200000J0D01*
G01*
X9267100Y-17921400D02*
G75*
G03*
X9267100Y-17921400I-200000J0D01*
G01*
X9314600Y-13921400D02*
G75*
G03*
X9314600Y-13921400I-200000J0D01*
G01*
X9500000Y-9921400D02*
G75*
G03*
X9500000Y-9921400I-200000J0D01*
G01*
X10214600Y-15921400D02*
G75*
G03*
X10214600Y-15921400I-200000J0D01*
G01*
X11014600Y-11921400D02*
G75*
G03*
X11014600Y-11921400I-200000J0D01*
G01*
X11314600Y-13921400D02*
G75*
G03*
X11314600Y-13921400I-200000J0D01*
G01*
X11500000Y-9921400D02*
G75*
G03*
X11500000Y-9921400I-200000J0D01*
G01*
X12214600Y-15921400D02*
G75*
G03*
X12214600Y-15921400I-200000J0D01*
G01*
X13014600Y-11921400D02*
G75*
G03*
X13014600Y-11921400I-200000J0D01*
G01*
X13314600Y-13921400D02*
G75*
G03*
X13314600Y-13921400I-200000J0D01*
G01*
X13500000Y-9921400D02*
G75*
G03*
X13500000Y-9921400I-200000J0D01*
G01*
X14214600Y-15921400D02*
G75*
G03*
X14214600Y-15921400I-200000J0D01*
G01*
X15014600Y-11921400D02*
G75*
G03*
X15014600Y-11921400I-200000J0D01*
G01*
X15314600Y-13921400D02*
G75*
G03*
X15314600Y-13921400I-200000J0D01*
G01*
X15514600Y-9921400D02*
G75*
G03*
X15514600Y-9921400I-200000J0D01*
G01*
X16214600Y-15921400D02*
G75*
G03*
X16214600Y-15921400I-200000J0D01*
G01*
X17014600Y-11921400D02*
G75*
G03*
X17014600Y-11921400I-200000J0D01*
G01*
X17214600Y-17921400D02*
G75*
G03*
X17214600Y-17921400I-200000J0D01*
G01*
X17314600Y-13921400D02*
G75*
G03*
X17314600Y-13921400I-200000J0D01*
G01*
X17514600Y-9921400D02*
G75*
G03*
X17514600Y-9921400I-200000J0D01*
G01*
X18214600Y-15921400D02*
G75*
G03*
X18214600Y-15921400I-200000J0D01*
G01*
X19014600Y-11921400D02*
G75*
G03*
X19014600Y-11921400I-200000J0D01*
G01*
X19314600Y-13921400D02*
G75*
G03*
X19314600Y-13921400I-200000J0D01*
G01*
X19514600Y-9921400D02*
G75*
G03*
X19514600Y-9921400I-200000J0D01*
G01*
X20214600Y-15921400D02*
G75*
G03*
X20214600Y-15921400I-200000J0D01*
G01*
X21014600Y-11921400D02*
G75*
G03*
X21014600Y-11921400I-200000J0D01*
G01*
X21314600Y-13921400D02*
G75*
G03*
X21314600Y-13921400I-200000J0D01*
G01*
X21514600Y-9921400D02*
G75*
G03*
X21514600Y-9921400I-200000J0D01*
G01*
X22214600Y-15921400D02*
G75*
G03*
X22214600Y-15921400I-200000J0D01*
G01*
X23014600Y-11921400D02*
G75*
G03*
X23014600Y-11921400I-200000J0D01*
G01*
X23314600Y-13921400D02*
G75*
G03*
X23314600Y-13921400I-200000J0D01*
G01*
X23514600Y-9921400D02*
G75*
G03*
X23514600Y-9921400I-200000J0D01*
G01*
X24214600Y-15921400D02*
G75*
G03*
X24214600Y-15921400I-200000J0D01*
G01*
X24214600Y-17921400D02*
G75*
G03*
X24214600Y-17921400I-200000J0D01*
G01*
X25014600Y-11921400D02*
G75*
G03*
X25014600Y-11921400I-200000J0D01*
G01*
X25314600Y-13921400D02*
G75*
G03*
X25314600Y-13921400I-200000J0D01*
G01*
X25514600Y-9921400D02*
G75*
G03*
X25514600Y-9921400I-200000J0D01*
G01*
X26214600Y-15921400D02*
G75*
G03*
X26214600Y-15921400I-200000J0D01*
G01*
X26214600Y-17921400D02*
G75*
G03*
X26214600Y-17921400I-200000J0D01*
G01*
X27014600Y-11921400D02*
G75*
G03*
X27014600Y-11921400I-200000J0D01*
G01*
X27314600Y-13921400D02*
G75*
G03*
X27314600Y-13921400I-200000J0D01*
G01*
X27514600Y-9921400D02*
G75*
G03*
X27514600Y-9921400I-200000J0D01*
G01*
X28214600Y-15921400D02*
G75*
G03*
X28214600Y-15921400I-200000J0D01*
G01*
X28214600Y-17921400D02*
G75*
G03*
X28214600Y-17921400I-200000J0D01*
G01*
X29014600Y-11921400D02*
G75*
G03*
X29014600Y-11921400I-200000J0D01*
G01*
X29314600Y-13921400D02*
G75*
G03*
X29314600Y-13921400I-200000J0D01*
G01*
X29514600Y-9921400D02*
G75*
G03*
X29514600Y-9921400I-200000J0D01*
G01*
X30214600Y-17921400D02*
G75*
G03*
X30214600Y-17921400I-200000J0D01*
G01*
X31014600Y-11921400D02*
G75*
G03*
X31014600Y-11921400I-200000J0D01*
G01*
X31162100Y-15921400D02*
G75*
G03*
X31162100Y-15921400I-200000J0D01*
G01*
X31514600Y-9921400D02*
G75*
G03*
X31514600Y-9921400I-200000J0D01*
G01*
X32214600Y-17929400D02*
G75*
G03*
X32214600Y-17929400I-200000J0D01*
G01*
X32262100Y-13921400D02*
G75*
G03*
X32262100Y-13921400I-200000J0D01*
G01*
D11*
X5223719Y-19226376D02*
X5223719Y-19026376D01*
X5271338Y-19026376D01*
X5299910Y-19035900D01*
X5318957Y-19054948D01*
X5328481Y-19073995D01*
X5338005Y-19112090D01*
X5338005Y-19140662D01*
X5328481Y-19178757D01*
X5318957Y-19197805D01*
X5299910Y-19216852D01*
X5271338Y-19226376D01*
X5223719Y-19226376D01*
X5423719Y-19226376D02*
X5423719Y-19093043D01*
X5423719Y-19131138D02*
X5433243Y-19112090D01*
X5442767Y-19102567D01*
X5461814Y-19093043D01*
X5480862Y-19093043D01*
X5547529Y-19226376D02*
X5547529Y-19093043D01*
X5547529Y-19026376D02*
X5538005Y-19035900D01*
X5547529Y-19045424D01*
X5557052Y-19035900D01*
X5547529Y-19026376D01*
X5547529Y-19045424D01*
X5671338Y-19226376D02*
X5652290Y-19216852D01*
X5642767Y-19197805D01*
X5642767Y-19026376D01*
X5776100Y-19226376D02*
X5757052Y-19216852D01*
X5747528Y-19197805D01*
X5747528Y-19026376D01*
X6004671Y-19226376D02*
X6004671Y-19026376D01*
X6071338Y-19169233D01*
X6138005Y-19026376D01*
X6138005Y-19226376D01*
X6318957Y-19226376D02*
X6318957Y-19121614D01*
X6309433Y-19102567D01*
X6290386Y-19093043D01*
X6252290Y-19093043D01*
X6233243Y-19102567D01*
X6318957Y-19216852D02*
X6299909Y-19226376D01*
X6252290Y-19226376D01*
X6233243Y-19216852D01*
X6223719Y-19197805D01*
X6223719Y-19178757D01*
X6233243Y-19159710D01*
X6252290Y-19150186D01*
X6299909Y-19150186D01*
X6318957Y-19140662D01*
X6414195Y-19093043D02*
X6414195Y-19293043D01*
X6414195Y-19102567D02*
X6433243Y-19093043D01*
X6471338Y-19093043D01*
X6490386Y-19102567D01*
X6499909Y-19112090D01*
X6509433Y-19131138D01*
X6509433Y-19188281D01*
X6499909Y-19207329D01*
X6490386Y-19216852D01*
X6471338Y-19226376D01*
X6433243Y-19226376D01*
X6414195Y-19216852D01*
X6595148Y-19207329D02*
X6604671Y-19216852D01*
X6595148Y-19226376D01*
X6585624Y-19216852D01*
X6595148Y-19207329D01*
X6595148Y-19226376D01*
X6595148Y-19102567D02*
X6604671Y-19112090D01*
X6595148Y-19121614D01*
X6585624Y-19112090D01*
X6595148Y-19102567D01*
X6595148Y-19121614D01*
D12*
X4796100Y-19470900D02*
X4966100Y-19640900D01*
X4966100Y-19470900D02*
X4796100Y-19640900D01*
D11*
X5328481Y-19646376D02*
X5214195Y-19646376D01*
X5271338Y-19646376D02*
X5271338Y-19446376D01*
X5252290Y-19474948D01*
X5233243Y-19493995D01*
X5214195Y-19503519D01*
X5414195Y-19627329D02*
X5423719Y-19636852D01*
X5414195Y-19646376D01*
X5404671Y-19636852D01*
X5414195Y-19627329D01*
X5414195Y-19646376D01*
X5490386Y-19446376D02*
X5623719Y-19446376D01*
X5538005Y-19646376D01*
X5738005Y-19446376D02*
X5757052Y-19446376D01*
X5776100Y-19455900D01*
X5785624Y-19465424D01*
X5795148Y-19484471D01*
X5804671Y-19522567D01*
X5804671Y-19570186D01*
X5795148Y-19608281D01*
X5785624Y-19627329D01*
X5776100Y-19636852D01*
X5757052Y-19646376D01*
X5738005Y-19646376D01*
X5718957Y-19636852D01*
X5709433Y-19627329D01*
X5699909Y-19608281D01*
X5690386Y-19570186D01*
X5690386Y-19522567D01*
X5699909Y-19484471D01*
X5709433Y-19465424D01*
X5718957Y-19455900D01*
X5738005Y-19446376D01*
X5928481Y-19446376D02*
X5947528Y-19446376D01*
X5966576Y-19455900D01*
X5976100Y-19465424D01*
X5985624Y-19484471D01*
X5995148Y-19522567D01*
X5995148Y-19570186D01*
X5985624Y-19608281D01*
X5976100Y-19627329D01*
X5966576Y-19636852D01*
X5947528Y-19646376D01*
X5928481Y-19646376D01*
X5909433Y-19636852D01*
X5899909Y-19627329D01*
X5890386Y-19608281D01*
X5880862Y-19570186D01*
X5880862Y-19522567D01*
X5890386Y-19484471D01*
X5899909Y-19465424D01*
X5909433Y-19455900D01*
X5928481Y-19446376D01*
X6080862Y-19646376D02*
X6080862Y-19513043D01*
X6080862Y-19532090D02*
X6090386Y-19522567D01*
X6109433Y-19513043D01*
X6138005Y-19513043D01*
X6157052Y-19522567D01*
X6166576Y-19541614D01*
X6166576Y-19646376D01*
X6166576Y-19541614D02*
X6176100Y-19522567D01*
X6195148Y-19513043D01*
X6223719Y-19513043D01*
X6242767Y-19522567D01*
X6252290Y-19541614D01*
X6252290Y-19646376D01*
X6347528Y-19646376D02*
X6347528Y-19513043D01*
X6347528Y-19532090D02*
X6357052Y-19522567D01*
X6376100Y-19513043D01*
X6404671Y-19513043D01*
X6423719Y-19522567D01*
X6433243Y-19541614D01*
X6433243Y-19646376D01*
X6433243Y-19541614D02*
X6442767Y-19522567D01*
X6461814Y-19513043D01*
X6490386Y-19513043D01*
X6509433Y-19522567D01*
X6518957Y-19541614D01*
X6518957Y-19646376D01*
X6909433Y-19436852D02*
X6738005Y-19693995D01*
X7166576Y-19446376D02*
X7185624Y-19446376D01*
X7204671Y-19455900D01*
X7214195Y-19465424D01*
X7223719Y-19484471D01*
X7233243Y-19522567D01*
X7233243Y-19570186D01*
X7223719Y-19608281D01*
X7214195Y-19627329D01*
X7204671Y-19636852D01*
X7185624Y-19646376D01*
X7166576Y-19646376D01*
X7147528Y-19636852D01*
X7138005Y-19627329D01*
X7128481Y-19608281D01*
X7118957Y-19570186D01*
X7118957Y-19522567D01*
X7128481Y-19484471D01*
X7138005Y-19465424D01*
X7147528Y-19455900D01*
X7166576Y-19446376D01*
X7318957Y-19627329D02*
X7328481Y-19636852D01*
X7318957Y-19646376D01*
X7309433Y-19636852D01*
X7318957Y-19627329D01*
X7318957Y-19646376D01*
X7452290Y-19446376D02*
X7471338Y-19446376D01*
X7490386Y-19455900D01*
X7499909Y-19465424D01*
X7509433Y-19484471D01*
X7518957Y-19522567D01*
X7518957Y-19570186D01*
X7509433Y-19608281D01*
X7499909Y-19627329D01*
X7490386Y-19636852D01*
X7471338Y-19646376D01*
X7452290Y-19646376D01*
X7433243Y-19636852D01*
X7423719Y-19627329D01*
X7414195Y-19608281D01*
X7404671Y-19570186D01*
X7404671Y-19522567D01*
X7414195Y-19484471D01*
X7423719Y-19465424D01*
X7433243Y-19455900D01*
X7452290Y-19446376D01*
X7690386Y-19446376D02*
X7652290Y-19446376D01*
X7633243Y-19455900D01*
X7623719Y-19465424D01*
X7604671Y-19493995D01*
X7595148Y-19532090D01*
X7595148Y-19608281D01*
X7604671Y-19627329D01*
X7614195Y-19636852D01*
X7633243Y-19646376D01*
X7671338Y-19646376D01*
X7690386Y-19636852D01*
X7699909Y-19627329D01*
X7709433Y-19608281D01*
X7709433Y-19560662D01*
X7699909Y-19541614D01*
X7690386Y-19532090D01*
X7671338Y-19522567D01*
X7633243Y-19522567D01*
X7614195Y-19532090D01*
X7604671Y-19541614D01*
X7595148Y-19560662D01*
X7880862Y-19446376D02*
X7842767Y-19446376D01*
X7823719Y-19455900D01*
X7814195Y-19465424D01*
X7795148Y-19493995D01*
X7785624Y-19532090D01*
X7785624Y-19608281D01*
X7795148Y-19627329D01*
X7804671Y-19636852D01*
X7823719Y-19646376D01*
X7861814Y-19646376D01*
X7880862Y-19636852D01*
X7890386Y-19627329D01*
X7899909Y-19608281D01*
X7899909Y-19560662D01*
X7890386Y-19541614D01*
X7880862Y-19532090D01*
X7861814Y-19522567D01*
X7823719Y-19522567D01*
X7804671Y-19532090D01*
X7795148Y-19541614D01*
X7785624Y-19560662D01*
X7995148Y-19646376D02*
X8033243Y-19646376D01*
X8052290Y-19636852D01*
X8061814Y-19627329D01*
X8080862Y-19598757D01*
X8090386Y-19560662D01*
X8090386Y-19484471D01*
X8080862Y-19465424D01*
X8071338Y-19455900D01*
X8052290Y-19446376D01*
X8014195Y-19446376D01*
X7995148Y-19455900D01*
X7985624Y-19465424D01*
X7976100Y-19484471D01*
X7976100Y-19532090D01*
X7985624Y-19551138D01*
X7995148Y-19560662D01*
X8014195Y-19570186D01*
X8052290Y-19570186D01*
X8071338Y-19560662D01*
X8080862Y-19551138D01*
X8090386Y-19532090D01*
X8166576Y-19446376D02*
X8166576Y-19484471D01*
X8242767Y-19446376D02*
X8242767Y-19484471D01*
X8538005Y-19722567D02*
X8528481Y-19713043D01*
X8509433Y-19684471D01*
X8499910Y-19665424D01*
X8490386Y-19636852D01*
X8480862Y-19589233D01*
X8480862Y-19551138D01*
X8490386Y-19503519D01*
X8499910Y-19474948D01*
X8509433Y-19455900D01*
X8528481Y-19427329D01*
X8538005Y-19417805D01*
X8718957Y-19646376D02*
X8604671Y-19646376D01*
X8661814Y-19646376D02*
X8661814Y-19446376D01*
X8642767Y-19474948D01*
X8623719Y-19493995D01*
X8604671Y-19503519D01*
X8909433Y-19646376D02*
X8795148Y-19646376D01*
X8852290Y-19646376D02*
X8852290Y-19446376D01*
X8833243Y-19474948D01*
X8814195Y-19493995D01*
X8795148Y-19503519D01*
X9080862Y-19446376D02*
X9042767Y-19446376D01*
X9023719Y-19455900D01*
X9014195Y-19465424D01*
X8995148Y-19493995D01*
X8985624Y-19532090D01*
X8985624Y-19608281D01*
X8995148Y-19627329D01*
X9004671Y-19636852D01*
X9023719Y-19646376D01*
X9061814Y-19646376D01*
X9080862Y-19636852D01*
X9090386Y-19627329D01*
X9099910Y-19608281D01*
X9099910Y-19560662D01*
X9090386Y-19541614D01*
X9080862Y-19532090D01*
X9061814Y-19522567D01*
X9023719Y-19522567D01*
X9004671Y-19532090D01*
X8995148Y-19541614D01*
X8985624Y-19560662D01*
X9338005Y-19646376D02*
X9338005Y-19446376D01*
X9423719Y-19646376D02*
X9423719Y-19541614D01*
X9414195Y-19522567D01*
X9395148Y-19513043D01*
X9366576Y-19513043D01*
X9347529Y-19522567D01*
X9338005Y-19532090D01*
X9547529Y-19646376D02*
X9528481Y-19636852D01*
X9518957Y-19627329D01*
X9509433Y-19608281D01*
X9509433Y-19551138D01*
X9518957Y-19532090D01*
X9528481Y-19522567D01*
X9547529Y-19513043D01*
X9576100Y-19513043D01*
X9595148Y-19522567D01*
X9604671Y-19532090D01*
X9614195Y-19551138D01*
X9614195Y-19608281D01*
X9604671Y-19627329D01*
X9595148Y-19636852D01*
X9576100Y-19646376D01*
X9547529Y-19646376D01*
X9728481Y-19646376D02*
X9709433Y-19636852D01*
X9699910Y-19617805D01*
X9699910Y-19446376D01*
X9880862Y-19636852D02*
X9861814Y-19646376D01*
X9823719Y-19646376D01*
X9804671Y-19636852D01*
X9795148Y-19617805D01*
X9795148Y-19541614D01*
X9804671Y-19522567D01*
X9823719Y-19513043D01*
X9861814Y-19513043D01*
X9880862Y-19522567D01*
X9890386Y-19541614D01*
X9890386Y-19560662D01*
X9795148Y-19579710D01*
X9966576Y-19636852D02*
X9985624Y-19646376D01*
X10023719Y-19646376D01*
X10042767Y-19636852D01*
X10052290Y-19617805D01*
X10052290Y-19608281D01*
X10042767Y-19589233D01*
X10023719Y-19579710D01*
X9995148Y-19579710D01*
X9976100Y-19570186D01*
X9966576Y-19551138D01*
X9966576Y-19541614D01*
X9976100Y-19522567D01*
X9995148Y-19513043D01*
X10023719Y-19513043D01*
X10042767Y-19522567D01*
X10118957Y-19722567D02*
X10128481Y-19713043D01*
X10147529Y-19684471D01*
X10157052Y-19665424D01*
X10166576Y-19636852D01*
X10176100Y-19589233D01*
X10176100Y-19551138D01*
X10166576Y-19503519D01*
X10157052Y-19474948D01*
X10147529Y-19455900D01*
X10128481Y-19427329D01*
X10118957Y-19417805D01*
X10480862Y-19722567D02*
X10471338Y-19713043D01*
X10452290Y-19684471D01*
X10442767Y-19665424D01*
X10433243Y-19636852D01*
X10423719Y-19589233D01*
X10423719Y-19551138D01*
X10433243Y-19503519D01*
X10442767Y-19474948D01*
X10452290Y-19455900D01*
X10471338Y-19427329D01*
X10480862Y-19417805D01*
X10557052Y-19513043D02*
X10557052Y-19646376D01*
X10557052Y-19532090D02*
X10566576Y-19522567D01*
X10585624Y-19513043D01*
X10614195Y-19513043D01*
X10633243Y-19522567D01*
X10642767Y-19541614D01*
X10642767Y-19646376D01*
X10766576Y-19646376D02*
X10747529Y-19636852D01*
X10738005Y-19627329D01*
X10728481Y-19608281D01*
X10728481Y-19551138D01*
X10738005Y-19532090D01*
X10747529Y-19522567D01*
X10766576Y-19513043D01*
X10795148Y-19513043D01*
X10814195Y-19522567D01*
X10823719Y-19532090D01*
X10833243Y-19551138D01*
X10833243Y-19608281D01*
X10823719Y-19627329D01*
X10814195Y-19636852D01*
X10795148Y-19646376D01*
X10766576Y-19646376D01*
X10890386Y-19513043D02*
X10966576Y-19513043D01*
X10918957Y-19446376D02*
X10918957Y-19617805D01*
X10928481Y-19636852D01*
X10947529Y-19646376D01*
X10966576Y-19646376D01*
X11185624Y-19513043D02*
X11185624Y-19713043D01*
X11185624Y-19522567D02*
X11204671Y-19513043D01*
X11242767Y-19513043D01*
X11261814Y-19522567D01*
X11271338Y-19532090D01*
X11280862Y-19551138D01*
X11280862Y-19608281D01*
X11271338Y-19627329D01*
X11261814Y-19636852D01*
X11242767Y-19646376D01*
X11204671Y-19646376D01*
X11185624Y-19636852D01*
X11395148Y-19646376D02*
X11376100Y-19636852D01*
X11366576Y-19617805D01*
X11366576Y-19446376D01*
X11557052Y-19646376D02*
X11557052Y-19541614D01*
X11547528Y-19522567D01*
X11528481Y-19513043D01*
X11490386Y-19513043D01*
X11471338Y-19522567D01*
X11557052Y-19636852D02*
X11538005Y-19646376D01*
X11490386Y-19646376D01*
X11471338Y-19636852D01*
X11461814Y-19617805D01*
X11461814Y-19598757D01*
X11471338Y-19579710D01*
X11490386Y-19570186D01*
X11538005Y-19570186D01*
X11557052Y-19560662D01*
X11623719Y-19513043D02*
X11699909Y-19513043D01*
X11652290Y-19446376D02*
X11652290Y-19617805D01*
X11661814Y-19636852D01*
X11680862Y-19646376D01*
X11699909Y-19646376D01*
X11842767Y-19636852D02*
X11823719Y-19646376D01*
X11785624Y-19646376D01*
X11766576Y-19636852D01*
X11757052Y-19617805D01*
X11757052Y-19541614D01*
X11766576Y-19522567D01*
X11785624Y-19513043D01*
X11823719Y-19513043D01*
X11842767Y-19522567D01*
X11852290Y-19541614D01*
X11852290Y-19560662D01*
X11757052Y-19579710D01*
X12023719Y-19646376D02*
X12023719Y-19446376D01*
X12023719Y-19636852D02*
X12004671Y-19646376D01*
X11966576Y-19646376D01*
X11947528Y-19636852D01*
X11938005Y-19627329D01*
X11928481Y-19608281D01*
X11928481Y-19551138D01*
X11938005Y-19532090D01*
X11947528Y-19522567D01*
X11966576Y-19513043D01*
X12004671Y-19513043D01*
X12023719Y-19522567D01*
X12099909Y-19722567D02*
X12109433Y-19713043D01*
X12128481Y-19684471D01*
X12138005Y-19665424D01*
X12147528Y-19636852D01*
X12157052Y-19589233D01*
X12157052Y-19551138D01*
X12147528Y-19503519D01*
X12138005Y-19474948D01*
X12128481Y-19455900D01*
X12109433Y-19427329D01*
X12099909Y-19417805D01*
X4966100Y-19845900D02*
G75*
G03*
X4966100Y-19845900I-100000J0D01*
G01*
X5309433Y-19803043D02*
X5309433Y-19936376D01*
X5261814Y-19726852D02*
X5214195Y-19869710D01*
X5338005Y-19869710D01*
X5414195Y-19917329D02*
X5423719Y-19926852D01*
X5414195Y-19936376D01*
X5404671Y-19926852D01*
X5414195Y-19917329D01*
X5414195Y-19936376D01*
X5547529Y-19736376D02*
X5566576Y-19736376D01*
X5585624Y-19745900D01*
X5595148Y-19755424D01*
X5604671Y-19774471D01*
X5614195Y-19812567D01*
X5614195Y-19860186D01*
X5604671Y-19898281D01*
X5595148Y-19917329D01*
X5585624Y-19926852D01*
X5566576Y-19936376D01*
X5547529Y-19936376D01*
X5528481Y-19926852D01*
X5518957Y-19917329D01*
X5509433Y-19898281D01*
X5499910Y-19860186D01*
X5499910Y-19812567D01*
X5509433Y-19774471D01*
X5518957Y-19755424D01*
X5528481Y-19745900D01*
X5547529Y-19736376D01*
X5738005Y-19736376D02*
X5757052Y-19736376D01*
X5776100Y-19745900D01*
X5785624Y-19755424D01*
X5795148Y-19774471D01*
X5804671Y-19812567D01*
X5804671Y-19860186D01*
X5795148Y-19898281D01*
X5785624Y-19917329D01*
X5776100Y-19926852D01*
X5757052Y-19936376D01*
X5738005Y-19936376D01*
X5718957Y-19926852D01*
X5709433Y-19917329D01*
X5699909Y-19898281D01*
X5690386Y-19860186D01*
X5690386Y-19812567D01*
X5699909Y-19774471D01*
X5709433Y-19755424D01*
X5718957Y-19745900D01*
X5738005Y-19736376D01*
X5928481Y-19736376D02*
X5947528Y-19736376D01*
X5966576Y-19745900D01*
X5976100Y-19755424D01*
X5985624Y-19774471D01*
X5995148Y-19812567D01*
X5995148Y-19860186D01*
X5985624Y-19898281D01*
X5976100Y-19917329D01*
X5966576Y-19926852D01*
X5947528Y-19936376D01*
X5928481Y-19936376D01*
X5909433Y-19926852D01*
X5899909Y-19917329D01*
X5890386Y-19898281D01*
X5880862Y-19860186D01*
X5880862Y-19812567D01*
X5890386Y-19774471D01*
X5899909Y-19755424D01*
X5909433Y-19745900D01*
X5928481Y-19736376D01*
X6080862Y-19936376D02*
X6080862Y-19803043D01*
X6080862Y-19822090D02*
X6090386Y-19812567D01*
X6109433Y-19803043D01*
X6138005Y-19803043D01*
X6157052Y-19812567D01*
X6166576Y-19831614D01*
X6166576Y-19936376D01*
X6166576Y-19831614D02*
X6176100Y-19812567D01*
X6195148Y-19803043D01*
X6223719Y-19803043D01*
X6242767Y-19812567D01*
X6252290Y-19831614D01*
X6252290Y-19936376D01*
X6347528Y-19936376D02*
X6347528Y-19803043D01*
X6347528Y-19822090D02*
X6357052Y-19812567D01*
X6376100Y-19803043D01*
X6404671Y-19803043D01*
X6423719Y-19812567D01*
X6433243Y-19831614D01*
X6433243Y-19936376D01*
X6433243Y-19831614D02*
X6442767Y-19812567D01*
X6461814Y-19803043D01*
X6490386Y-19803043D01*
X6509433Y-19812567D01*
X6518957Y-19831614D01*
X6518957Y-19936376D01*
X6909433Y-19726852D02*
X6738005Y-19983995D01*
X7166576Y-19736376D02*
X7185624Y-19736376D01*
X7204671Y-19745900D01*
X7214195Y-19755424D01*
X7223719Y-19774471D01*
X7233243Y-19812567D01*
X7233243Y-19860186D01*
X7223719Y-19898281D01*
X7214195Y-19917329D01*
X7204671Y-19926852D01*
X7185624Y-19936376D01*
X7166576Y-19936376D01*
X7147528Y-19926852D01*
X7138005Y-19917329D01*
X7128481Y-19898281D01*
X7118957Y-19860186D01*
X7118957Y-19812567D01*
X7128481Y-19774471D01*
X7138005Y-19755424D01*
X7147528Y-19745900D01*
X7166576Y-19736376D01*
X7318957Y-19917329D02*
X7328481Y-19926852D01*
X7318957Y-19936376D01*
X7309433Y-19926852D01*
X7318957Y-19917329D01*
X7318957Y-19936376D01*
X7518957Y-19936376D02*
X7404671Y-19936376D01*
X7461814Y-19936376D02*
X7461814Y-19736376D01*
X7442767Y-19764948D01*
X7423719Y-19783995D01*
X7404671Y-19793519D01*
X7699909Y-19736376D02*
X7604671Y-19736376D01*
X7595148Y-19831614D01*
X7604671Y-19822090D01*
X7623719Y-19812567D01*
X7671338Y-19812567D01*
X7690386Y-19822090D01*
X7699909Y-19831614D01*
X7709433Y-19850662D01*
X7709433Y-19898281D01*
X7699909Y-19917329D01*
X7690386Y-19926852D01*
X7671338Y-19936376D01*
X7623719Y-19936376D01*
X7604671Y-19926852D01*
X7595148Y-19917329D01*
X7776100Y-19736376D02*
X7909433Y-19736376D01*
X7823719Y-19936376D01*
X8080862Y-19736376D02*
X7985624Y-19736376D01*
X7976100Y-19831614D01*
X7985624Y-19822090D01*
X8004671Y-19812567D01*
X8052290Y-19812567D01*
X8071338Y-19822090D01*
X8080862Y-19831614D01*
X8090386Y-19850662D01*
X8090386Y-19898281D01*
X8080862Y-19917329D01*
X8071338Y-19926852D01*
X8052290Y-19936376D01*
X8004671Y-19936376D01*
X7985624Y-19926852D01*
X7976100Y-19917329D01*
X8166576Y-19736376D02*
X8166576Y-19774471D01*
X8242767Y-19736376D02*
X8242767Y-19774471D01*
X8538005Y-20012567D02*
X8528481Y-20003043D01*
X8509433Y-19974471D01*
X8499910Y-19955424D01*
X8490386Y-19926852D01*
X8480862Y-19879233D01*
X8480862Y-19841138D01*
X8490386Y-19793519D01*
X8499910Y-19764948D01*
X8509433Y-19745900D01*
X8528481Y-19717329D01*
X8538005Y-19707805D01*
X8709433Y-19736376D02*
X8614195Y-19736376D01*
X8604671Y-19831614D01*
X8614195Y-19822090D01*
X8633243Y-19812567D01*
X8680862Y-19812567D01*
X8699910Y-19822090D01*
X8709433Y-19831614D01*
X8718957Y-19850662D01*
X8718957Y-19898281D01*
X8709433Y-19917329D01*
X8699910Y-19926852D01*
X8680862Y-19936376D01*
X8633243Y-19936376D01*
X8614195Y-19926852D01*
X8604671Y-19917329D01*
X8833243Y-19822090D02*
X8814195Y-19812567D01*
X8804671Y-19803043D01*
X8795148Y-19783995D01*
X8795148Y-19774471D01*
X8804671Y-19755424D01*
X8814195Y-19745900D01*
X8833243Y-19736376D01*
X8871338Y-19736376D01*
X8890386Y-19745900D01*
X8899910Y-19755424D01*
X8909433Y-19774471D01*
X8909433Y-19783995D01*
X8899910Y-19803043D01*
X8890386Y-19812567D01*
X8871338Y-19822090D01*
X8833243Y-19822090D01*
X8814195Y-19831614D01*
X8804671Y-19841138D01*
X8795148Y-19860186D01*
X8795148Y-19898281D01*
X8804671Y-19917329D01*
X8814195Y-19926852D01*
X8833243Y-19936376D01*
X8871338Y-19936376D01*
X8890386Y-19926852D01*
X8899910Y-19917329D01*
X8909433Y-19898281D01*
X8909433Y-19860186D01*
X8899910Y-19841138D01*
X8890386Y-19831614D01*
X8871338Y-19822090D01*
X9147529Y-19936376D02*
X9147529Y-19736376D01*
X9233243Y-19936376D02*
X9233243Y-19831614D01*
X9223719Y-19812567D01*
X9204671Y-19803043D01*
X9176100Y-19803043D01*
X9157052Y-19812567D01*
X9147529Y-19822090D01*
X9357052Y-19936376D02*
X9338005Y-19926852D01*
X9328481Y-19917329D01*
X9318957Y-19898281D01*
X9318957Y-19841138D01*
X9328481Y-19822090D01*
X9338005Y-19812567D01*
X9357052Y-19803043D01*
X9385624Y-19803043D01*
X9404671Y-19812567D01*
X9414195Y-19822090D01*
X9423719Y-19841138D01*
X9423719Y-19898281D01*
X9414195Y-19917329D01*
X9404671Y-19926852D01*
X9385624Y-19936376D01*
X9357052Y-19936376D01*
X9538005Y-19936376D02*
X9518957Y-19926852D01*
X9509433Y-19907805D01*
X9509433Y-19736376D01*
X9690386Y-19926852D02*
X9671338Y-19936376D01*
X9633243Y-19936376D01*
X9614195Y-19926852D01*
X9604671Y-19907805D01*
X9604671Y-19831614D01*
X9614195Y-19812567D01*
X9633243Y-19803043D01*
X9671338Y-19803043D01*
X9690386Y-19812567D01*
X9699910Y-19831614D01*
X9699910Y-19850662D01*
X9604671Y-19869710D01*
X9776100Y-19926852D02*
X9795148Y-19936376D01*
X9833243Y-19936376D01*
X9852290Y-19926852D01*
X9861814Y-19907805D01*
X9861814Y-19898281D01*
X9852290Y-19879233D01*
X9833243Y-19869710D01*
X9804671Y-19869710D01*
X9785624Y-19860186D01*
X9776100Y-19841138D01*
X9776100Y-19831614D01*
X9785624Y-19812567D01*
X9804671Y-19803043D01*
X9833243Y-19803043D01*
X9852290Y-19812567D01*
X9928481Y-20012567D02*
X9938005Y-20003043D01*
X9957052Y-19974471D01*
X9966576Y-19955424D01*
X9976100Y-19926852D01*
X9985624Y-19879233D01*
X9985624Y-19841138D01*
X9976100Y-19793519D01*
X9966576Y-19764948D01*
X9957052Y-19745900D01*
X9938005Y-19717329D01*
X9928481Y-19707805D01*
X10290386Y-20012567D02*
X10280862Y-20003043D01*
X10261814Y-19974471D01*
X10252290Y-19955424D01*
X10242767Y-19926852D01*
X10233243Y-19879233D01*
X10233243Y-19841138D01*
X10242767Y-19793519D01*
X10252290Y-19764948D01*
X10261814Y-19745900D01*
X10280862Y-19717329D01*
X10290386Y-19707805D01*
X10366576Y-19803043D02*
X10366576Y-19936376D01*
X10366576Y-19822090D02*
X10376100Y-19812567D01*
X10395148Y-19803043D01*
X10423719Y-19803043D01*
X10442767Y-19812567D01*
X10452290Y-19831614D01*
X10452290Y-19936376D01*
X10576100Y-19936376D02*
X10557052Y-19926852D01*
X10547529Y-19917329D01*
X10538005Y-19898281D01*
X10538005Y-19841138D01*
X10547529Y-19822090D01*
X10557052Y-19812567D01*
X10576100Y-19803043D01*
X10604671Y-19803043D01*
X10623719Y-19812567D01*
X10633243Y-19822090D01*
X10642767Y-19841138D01*
X10642767Y-19898281D01*
X10633243Y-19917329D01*
X10623719Y-19926852D01*
X10604671Y-19936376D01*
X10576100Y-19936376D01*
X10699910Y-19803043D02*
X10776100Y-19803043D01*
X10728481Y-19736376D02*
X10728481Y-19907805D01*
X10738005Y-19926852D01*
X10757052Y-19936376D01*
X10776100Y-19936376D01*
X10995148Y-19803043D02*
X10995148Y-20003043D01*
X10995148Y-19812567D02*
X11014195Y-19803043D01*
X11052290Y-19803043D01*
X11071338Y-19812567D01*
X11080862Y-19822090D01*
X11090386Y-19841138D01*
X11090386Y-19898281D01*
X11080862Y-19917329D01*
X11071338Y-19926852D01*
X11052290Y-19936376D01*
X11014195Y-19936376D01*
X10995148Y-19926852D01*
X11204671Y-19936376D02*
X11185624Y-19926852D01*
X11176100Y-19907805D01*
X11176100Y-19736376D01*
X11366576Y-19936376D02*
X11366576Y-19831614D01*
X11357052Y-19812567D01*
X11338005Y-19803043D01*
X11299909Y-19803043D01*
X11280862Y-19812567D01*
X11366576Y-19926852D02*
X11347528Y-19936376D01*
X11299909Y-19936376D01*
X11280862Y-19926852D01*
X11271338Y-19907805D01*
X11271338Y-19888757D01*
X11280862Y-19869710D01*
X11299909Y-19860186D01*
X11347528Y-19860186D01*
X11366576Y-19850662D01*
X11433243Y-19803043D02*
X11509433Y-19803043D01*
X11461814Y-19736376D02*
X11461814Y-19907805D01*
X11471338Y-19926852D01*
X11490386Y-19936376D01*
X11509433Y-19936376D01*
X11652290Y-19926852D02*
X11633243Y-19936376D01*
X11595148Y-19936376D01*
X11576100Y-19926852D01*
X11566576Y-19907805D01*
X11566576Y-19831614D01*
X11576100Y-19812567D01*
X11595148Y-19803043D01*
X11633243Y-19803043D01*
X11652290Y-19812567D01*
X11661814Y-19831614D01*
X11661814Y-19850662D01*
X11566576Y-19869710D01*
X11833243Y-19936376D02*
X11833243Y-19736376D01*
X11833243Y-19926852D02*
X11814195Y-19936376D01*
X11776100Y-19936376D01*
X11757052Y-19926852D01*
X11747528Y-19917329D01*
X11738005Y-19898281D01*
X11738005Y-19841138D01*
X11747528Y-19822090D01*
X11757052Y-19812567D01*
X11776100Y-19803043D01*
X11814195Y-19803043D01*
X11833243Y-19812567D01*
X11909433Y-20012567D02*
X11918957Y-20003043D01*
X11938005Y-19974471D01*
X11947528Y-19955424D01*
X11957052Y-19926852D01*
X11966576Y-19879233D01*
X11966576Y-19841138D01*
X11957052Y-19793519D01*
X11947528Y-19764948D01*
X11938005Y-19745900D01*
X11918957Y-19717329D01*
X11909433Y-19707805D01*
M02*
